<svg xmlns="http://www.w3.org/2000/svg" xmlns:xlink="http://www.w3.org/1999/xlink" width="287" height="46" viewBox="0 0 287 46">
  <defs>
    <style>
      .cls-1 {
        clip-path: url(#clip-画板_1);
      }

      .cls-2 {
        fill: #231815;
      }

      .cls-3 {
        fill: #e60012;
      }

      .cls-4 {
        fill: #fff;
      }

      .cls-5 {
        fill: rgba(255,255,255,0);
      }
    </style>
    <clipPath id="clip-画板_1">
      <rect width="287" height="46"/>
    </clipPath>
  </defs>
  <g id="画板_1" data-name="画板 – 1" class="cls-1">
    <rect class="cls-5" width="287" height="46"/>
    <g id="text" transform="translate(1)">
      <path id="路径_1" data-name="路径 1" class="cls-2" d="M271.43,1.16h5.076a9.047,9.047,0,0,1,5.621,1.5,5.193,5.193,0,0,1,1.937,4.385,6.6,6.6,0,0,1-.911,3.5,6.122,6.122,0,0,1-2.563,2.318,8.409,8.409,0,0,1-3.764.816,12.228,12.228,0,0,1-2.773-.325v8.009H271.43Zm8.695,9.24a4.135,4.135,0,0,0,1.3-3.244,3.4,3.4,0,0,0-1.276-2.968,6.246,6.246,0,0,0-3.7-.921h-2.4v8.059a13.32,13.32,0,0,0,2.288.235,5.464,5.464,0,0,0,3.784-1.161" transform="translate(-135.564 -0.579)"/>
      <path id="路径_2" data-name="路径 2" class="cls-2" d="M308.66,16.613H299.3V14.7L308.69.8h2.568V14.45h3l-.35,2.162h-2.648v4.56h-2.6Zm0-2.162V4.144L301.733,14.45Z" transform="translate(-149.484 -0.4)"/>
      <path id="路径_3" data-name="路径 3" class="cls-2" d="M332.912,18.723Q331.26,16.1,331.26,11.15q0-5.046,1.707-7.8A5.656,5.656,0,0,1,338.108.593a5.556,5.556,0,0,1,5.006,2.6q1.672,2.6,1.652,7.578,0,5.046-1.7,7.809a5.643,5.643,0,0,1-5.161,2.758,5.486,5.486,0,0,1-4.97-2.618m8.184-1.617a15.292,15.292,0,0,0,1-6.247,15.448,15.448,0,0,0-.946-6.052,3.2,3.2,0,0,0-3.093-2.147q-4.145,0-4.145,8.474a15.021,15.021,0,0,0,.951,6.032,3.179,3.179,0,0,0,3.063,2.087,3.307,3.307,0,0,0,3.159-2.147" transform="translate(-165.446 -0.293)"/>
      <path id="路径_4" data-name="路径 4" class="cls-2" d="M13.39,9.339H4.11V1.17H0V21.422H4.11V13.2h9.28v8.224h4.1V1.17h-4.1Z" transform="translate(0 -0.584)"/>
      <path id="路径_5" data-name="路径 5" class="cls-2" d="M59.68,12.763c0,3.294-1.637,5.051-4.605,5.051s-4.63-1.807-4.63-5.191V1.18H46.33V12.763c0,5.7,3.169,8.96,8.685,8.96s8.77-3.324,8.77-9.125V1.17h-4.1Z" transform="translate(-23.139 -0.584)"/>
      <path id="路径_6" data-name="路径 6" class="cls-2" d="M146.509,15.1l-4.6-13.925h-3.354L133.96,15.1,129.485,1.18H125.11l7.058,20.242h3.4l4.605-13.3,4.605,13.3h3.429L155.248,1.18h-4.26Z" transform="translate(-62.485 -0.584)"/>
      <path id="路径_7" data-name="路径 7" class="cls-2" d="M195.994,12.723h7.473V9.034h-7.473V4.889h10.852V1.2H191.94V21.422h15.3V17.733H195.994Z" transform="translate(-95.863 -0.599)"/>
      <rect id="矩形_1" data-name="矩形 1" class="cls-2" width="4.055" height="20.227" transform="translate(116.269 0.586)"/>
      <path id="路径_8" data-name="路径 8" class="cls-2" d="M100.662,17.193l1.822,4.22h4.3L97.9,1.17H94.28L85.36,21.412h4.19l1.847-4.22ZM96.022,6.3l3.113,7.248H92.923Z" transform="translate(-42.633 -0.584)"/>
      <path id="路径_9" data-name="路径 9" class="cls-3" d="M516.3,71.391a9.275,9.275,0,1,0-6.57-2.708,9.275,9.275,0,0,0,6.57,2.708" transform="translate(-253.218 -26.391)"/>
      <path id="路径_10" data-name="路径 10" class="cls-4" d="M514.443,63.1c-1.752-.07-2.227,2.418-2.333,2.838a.065.065,0,0,1,0,.045,4.475,4.475,0,0,1-.841-.185l-.12.345a3.133,3.133,0,0,0,.9.225,11.264,11.264,0,0,1-.631,1.922,4.145,4.145,0,0,0-1.066-.14c-.771,0-1.041.36-1.061.591-.05.6.706.881,1.226.881a2.252,2.252,0,0,0,1.557-.551,18.8,18.8,0,0,0,5.846,1.081,26.829,26.829,0,0,0,7.218-1.041l-.1-.37a22.38,22.38,0,0,1-6.973.781,17.91,17.91,0,0,1-5.606-.966s.1-.16.145-.265a16.757,16.757,0,0,0,.7-1.942s2.167-.606,2.167-2.333a1,1,0,0,0-1-.916m.08.5a.425.425,0,0,1,.43.5,2.152,2.152,0,0,1-1.6,1.777s.345-2.288,1.166-2.288m3.5,1.186c-.365,0-.616.145-.616.5s.29.43.616.43.606-.155.606-.506-.37-.425-.631-.425m4.845,1.246a1.647,1.647,0,0,0-1.637,1.432v.12a1.261,1.261,0,0,1-.841.451c-.36,0-.43-.3-.43-.5s.18-1.041.676-1.041a.571.571,0,0,1,.43.225l.145-.471a1.141,1.141,0,0,0-.7-.185,1.642,1.642,0,0,0-1.717,1.432.5.5,0,0,1-.025.145.831.831,0,0,1-.591.325c-.22,0-.225-.17-.225-.245s.43-1.6.43-1.6h-1.146l-.39,1.457a3.319,3.319,0,0,1-1.5.5c-.451.03-.611-.25-.611-.41V67.6h.325c.14,0,1.452-.105,1.452-.921,0-.466-.5-.636-1.061-.636a1.67,1.67,0,0,0-1.862,1.472c0,.8.626,1.046,1.432,1.046a4,4,0,0,0,1.767-.506s.055.556.781.556a2.152,2.152,0,0,0,1.326-.556,1.266,1.266,0,0,0,1.066.536,2.037,2.037,0,0,0,1.326-.616,1,1,0,0,0,.961.581,1.236,1.236,0,0,0,.9-.365.721.721,0,0,0,.676.365,1.762,1.762,0,0,0,1.081-.425l-.1-.37a.917.917,0,0,1-.41.185.21.21,0,0,1-.205-.225,12.787,12.787,0,0,1,.43-1.6h-1.041l-.045.165s-.15-.285-.691-.285m-7.4.405a.255.255,0,0,1,.265.225c0,.731-.921.616-.921.616s.13-.871.656-.841m7.6,0a.32.32,0,0,1,.33.305s-.125,1.266-.736,1.266c-.28,0-.285-.32-.285-.405,0-.24.185-1.166.691-1.166m-12.9,2.192a.656.656,0,0,1,.14,0,3,3,0,0,1,.841.18,1.822,1.822,0,0,1-.841.37c-.29,0-.471-.18-.471-.285,0-.18.17-.25.33-.265" transform="translate(-254.36 -31.513)"/>
      <path id="路径_11" data-name="路径 11" class="cls-2" d="M289.24,65.987A6.828,6.828,0,0,0,291.3,63.76l.5.265a9.257,9.257,0,0,1-.676.976v2.843h-.566v-2.2a9.255,9.255,0,0,1-1.031.9c-.09-.185-.185-.37-.285-.551m.05,2.628h3.219v-.966h.581v.966h3.224v.526h-3.224V71h-.581V69.141H289.29Zm2.057-2.3a13.145,13.145,0,0,0,1.777-.6V63.88h.566v1.572a9.079,9.079,0,0,0,1.892-1.236l.385.435a12.219,12.219,0,0,1-2.278,1.382v.6c0,.325.205.5.606.5h.771a.556.556,0,0,0,.636-.5,6.406,6.406,0,0,0,.1-.846,5.62,5.62,0,0,0,.566.22c-.04.315-.09.586-.135.816a.921.921,0,0,1-1.041.8h-1.1c-.646,0-.966-.3-.966-.9v-.44c-.451.2-.931.38-1.437.556a3.681,3.681,0,0,0-.32-.546" transform="translate(-144.459 -31.845)"/>
      <path id="路径_12" data-name="路径 12" class="cls-2" d="M311.02,65.707h2.728a16.455,16.455,0,0,0,.105-1.927h.631a15.786,15.786,0,0,1-.105,1.927h3.093c-.03,1.5-.07,2.738-.13,3.714a1.281,1.281,0,0,1-1.442,1.362c-.375,0-.826,0-1.346-.04a3.675,3.675,0,0,0-.11-.676,9.575,9.575,0,0,0,1.346.1.806.806,0,0,0,.916-.856q.105-1.427.135-3H314.3a6.637,6.637,0,0,1-3,4.77c-.135-.17-.285-.345-.445-.536a5.877,5.877,0,0,0,2.8-4.235h-2.643Zm.5-1.442.405-.375c.405.345.791.706,1.166,1.076l-.445.415c-.355-.4-.731-.771-1.111-1.131m2.938,3.319.4-.355c.466.43.891.856,1.266,1.276l-.45.405c-.375-.44-.781-.886-1.216-1.326" transform="translate(-155.252 -31.855)"/>
      <path id="路径_13" data-name="路径 13" class="cls-2" d="M353.88,68.03a9.316,9.316,0,0,0,1.712-2.378l.5.26c-.23.39-.461.761-.686,1.106v4h-.541V67.759a10.552,10.552,0,0,1-.726.851,4.143,4.143,0,0,0-.255-.581m.04-2.177a7.228,7.228,0,0,0,1.717-2.042l.5.29a10.482,10.482,0,0,1-1.927,2.278,3.429,3.429,0,0,0-.3-.5m7.273,4.17c-.18.155-.345.31-.5.461a5.461,5.461,0,0,1-1.907-2.538v3.063h-.551V67.91a6.347,6.347,0,0,1-2.162,2.658,4.678,4.678,0,0,0-.415-.42,5.881,5.881,0,0,0,2.132-2.308h-1.782v-.5h2.227V65.257h-1.857v-.5h1.857V63.84h.551v.916h1.9v.5h-1.9v2.087h2.273v.5h-1.872a4.956,4.956,0,0,0,2,2.172m-4.825-4.11.4-.31c.3.34.611.726.931,1.146l-.445.355c-.3-.44-.6-.841-.886-1.191m2.858.856a8.963,8.963,0,0,0,1-1.166l.446.33c-.37.5-.706.886-1,1.221Z" transform="translate(-176.743 -31.87)"/>
      <path id="路径_14" data-name="路径 14" class="cls-2" d="M375.6,66.663h2.9V63.88h.611v1.086h3.053V65.5h-3.053v1.161h3.5v.551H375.61Zm2.893.811h.611v.841l.3-.385c1.156.5,2.092,1,2.818,1.4l-.38.541c-.661-.405-1.572-.886-2.738-1.452v2.628h-.611Z" transform="translate(-187.591 -31.904)"/>
      <path id="路径_15" data-name="路径 15" class="cls-2" d="M410.71,69.391l.551-.1v-4.42h-.471v-.5h3.143v.5h-.546v4.054l.661-.125a4.19,4.19,0,0,0,.05.5l-.711.14v1.537h-.531V69.561l-2,.41Zm1.081-3.464h1.066V64.876h-1.066Zm0,1.557h1.066V66.428h-1.066Zm1.066,1.5v-.991h-1.066v1.211l1.066-.185m.786-1.777h1.677c0-.355.03-.8.025-1.316h-1.5v-.541h1.967c.215-.35.5-.861.856-1.537l.571.27c-.3.471-.581.891-.841,1.266h1.216v.541h-1.7c0,.5,0,.961-.025,1.316h1.977v.536h-1.9a4.4,4.4,0,0,0,2,2.583,4.643,4.643,0,0,0-.466.546,5.206,5.206,0,0,1-1.817-2.453,4.315,4.315,0,0,1-1.772,2.5c-.15-.19-.285-.345-.405-.476a3.729,3.729,0,0,0,1.777-2.728h-1.637Zm.5-3.093.42-.3a9.2,9.2,0,0,1,.8,1.076l-.47.325c-.205-.335-.466-.706-.771-1.111" transform="translate(-205.127 -31.889)"/>
      <path id="路径_16" data-name="路径 16" class="cls-2" d="M436.36,64l-.175.21a7.453,7.453,0,0,0,3.224,2.378c-.15.215-.275.41-.385.581a8.7,8.7,0,0,1-1.116-.636v.41h-4.26v-.36c-.355.23-.731.461-1.136.686a6.343,6.343,0,0,0-.36-.551A9.11,9.11,0,0,0,435.544,64Zm-3.113,3.869h5.076V71.1h-.586v-.5h-3.909v.5h-.581Zm4.505.531h-3.924v1.7h3.909Zm-1.937-3.769a8.8,8.8,0,0,1-1.942,1.8h3.894a9.245,9.245,0,0,1-1.952-1.8" transform="translate(-215.835 -31.964)"/>
      <path id="路径_17" data-name="路径 17" class="cls-2" d="M454.368,69.07a6.489,6.489,0,0,0,.05.651c-.661.43-1.156.776-1.5,1.036l-.35-.5a.856.856,0,0,0,.25-.651V67.033h-.926v-.5h1.477v3.234c.315-.21.641-.43,1-.671M452.9,64.32c.375.37.736.746,1.071,1.121l-.5.425a12.905,12.905,0,0,0-1.021-1.206Zm1.452,3.5v-.5h3.964v.5a5.606,5.606,0,0,1-1.417,2,6.007,6.007,0,0,0,2.232.851c-.17.215-.315.415-.446.591a7.093,7.093,0,0,1-2.262-1.091,9.561,9.561,0,0,1-2.5,1.146,5.237,5.237,0,0,0-.38-.5,9.065,9.065,0,0,0,2.418-1,4.79,4.79,0,0,1-1.226-1.962Zm3.053-2.838h-1.817v.175a2.127,2.127,0,0,1-1.221,2,4.007,4.007,0,0,0-.425-.451,1.7,1.7,0,0,0,1.081-1.532V64.43h2.933v1.5a.3.3,0,0,0,.335.33h.8c-.025.2-.045.375-.06.536h-.961c-.456,0-.686-.25-.686-.756Zm-2.122,2.838a4.34,4.34,0,0,0,1.151,1.637,4.2,4.2,0,0,0,1.236-1.637Z" transform="translate(-225.694 -32.124)"/>
      <path id="路径_18" data-name="路径 18" class="cls-2" d="M475.088,69.036a5.045,5.045,0,0,0,.05.636q-1.161.726-1.922,1.266l-.345-.5a.836.836,0,0,0,.25-.661V66.9H472.09v-.5h1.617v3.539c.42-.26.881-.551,1.382-.876m-2.258-5.006c.531.541.911.946,1.151,1.206l-.5.43a12.959,12.959,0,0,0-1.086-1.251Zm1.587,2.408h2.132v-2.5h.626v2.5h2.132v.5h-2.132v4.11h-.626V66.938h-2.117Z" transform="translate(-235.783 -31.944)"/>
      <rect id="矩形_2" data-name="矩形 2" class="cls-2" width="0.606" height="7.293" transform="translate(169.633 31.94)"/>
      <path id="路径_19" data-name="路径 19" class="cls-2" d="M384.876,15.63l1.4.966a59.108,59.108,0,0,1-5.7,4.31l-1.226-1.231a31.741,31.741,0,0,0,5.506-4.034M393.8,9.764q3.073,2.548,5.967,5.176l-1.407,1.051-1.667-1.677c-2.338.12-4.265.175-5.786.175v4.475q.08,2.638-2.633,2.633h-2.593a7.36,7.36,0,0,0-.26-1.407.66.66,0,0,1-.09-.26h.851c.756.055,1.341.085,1.752.085,1,.06,1.462-.35,1.4-1.226v-4.21q-3.6.09-5.877.26a19.14,19.14,0,0,0-2.368.18l-.611-1.5a8.51,8.51,0,0,0,2.543-.966,66.231,66.231,0,0,0,6.062-3.058q-1.141.08-3.684.175c-.821.055-1.437.085-1.842.085a11.147,11.147,0,0,0-1.757.265l-.626-1.407a9.54,9.54,0,0,0,1.927-.876q1.5-.881,4.65-2.893c.526-.35.936-.616,1.226-.791-.876.06-2.1.115-3.684.175l-4.385.265a5.506,5.506,0,0,0-.35-1.582q10.882-.5,17.985-1.141l.435,1.5q-5.091.44-9.12.706l1.051.7q-3.779,2.278-6.582,3.769,1.231-.08,4.3-.175c1.231-.055,2.137-.085,2.718-.085a46.834,46.834,0,0,0,4.315-2.8l1.5,1.141a136.983,136.983,0,0,1-12.984,6.908q6.312-.17,11.052-.44c-.3-.29-.791-.726-1.5-1.311a12.692,12.692,0,0,1-1.141-.966Zm-.791,6.928,1.056-1.136c1.106.761,2.748,1.9,4.91,3.419a7.969,7.969,0,0,0,.966.616l-1.206,1.316c-.235-.175-.561-.44-.966-.791q-2-1.577-4.74-3.424" transform="translate(-189.464 -0.884)"/>
      <path id="路径_20" data-name="路径 20" class="cls-2" d="M428.69,13.088a22.024,22.024,0,0,0,5.346-9.736h-4.56v-1.5h11.668v1.5h-5.436q-.09.265-.18.616-.435,1.311-1.051,2.8h5.506V8.353a19.071,19.071,0,0,1-9.21,13.07,7.759,7.759,0,0,0-1.141-1.226q7.283-4.3,8.685-11.933h-4.47c-.115.235-.29.556-.5.966s-.5.821-.611,1.051c.405.35.526.471.35.35q1.752,1.4,2.718,2.283l-1.051,1.316Q433.51,13,431.844,11.6c-.115.175-.32.471-.611.876q-.263.353-1.5,1.842a6.768,6.768,0,0,1-.526-.611q-.353-.443-.526-.616M443.7,16.422H442.12V3.438H443.7ZM446.765,1.07h1.667V18.554c.12,1.812-.761,2.718-2.628,2.718h-3.249a9.011,9.011,0,0,0-.35-1.842c1.462.055,2.5.085,3.068.085q1.667.09,1.5-1.577Z" transform="translate(-214.102 -0.534)"/>
      <path id="路径_21" data-name="路径 21" class="cls-2" d="M502.08,21.131l.786-2.087a9.12,9.12,0,0,0,2.353,1.331,7.644,7.644,0,0,0,2.838.5,4.951,4.951,0,0,0,2.413-.551,3.609,3.609,0,0,0,1.5-1.567,5.166,5.166,0,0,0,.5-2.363,3.759,3.759,0,0,0-1.251-3.068,5.29,5.29,0,0,0-3.5-1.041,12.013,12.013,0,0,0-2.5.245,13.44,13.44,0,0,0-2.1.611l.8-10.512h10.136l-.275,2.2h-7.839l-.471,5.811a9.746,9.746,0,0,1,2.908-.415,8.459,8.459,0,0,1,3.434.676,5.551,5.551,0,0,1,2.443,2.042,5.937,5.937,0,0,1,.9,3.384,6.953,6.953,0,0,1-.866,3.5,5.816,5.816,0,0,1-2.453,2.323,8.009,8.009,0,0,1-3.709.821,9.786,9.786,0,0,1-6.047-1.857" transform="translate(-250.761 -1.314)"/>
      <path id="路径_22" data-name="路径 22" class="cls-2" d="M538.72,21.495a8.153,8.153,0,0,1-3.309-3.534,11.838,11.838,0,0,1-1.136-5.326,11.513,11.513,0,0,1,1.321-5.7,8.774,8.774,0,0,1,3.629-3.569,11.012,11.012,0,0,1,5.206-1.211,13.219,13.219,0,0,1,3.279.4A14.767,14.767,0,0,1,550.6,3.625L549.787,5.7a11.848,11.848,0,0,0-5.271-1.357,7.839,7.839,0,0,0-3.909.956,6.552,6.552,0,0,0-2.648,2.823A9.724,9.724,0,0,0,537,12.63a10.561,10.561,0,0,0,.741,4.075,6.137,6.137,0,0,0,2.318,2.843,7.033,7.033,0,0,0,4,1.051,12.389,12.389,0,0,0,2.282-.215,12.944,12.944,0,0,0,2.212-.6V15.178h-5.006V13.021h7.538V21.1a16.724,16.724,0,0,1-7.183,1.657A10.156,10.156,0,0,1,538.74,21.5" transform="translate(-266.838 -1.077)"/>
      <rect id="矩形_3" data-name="矩形 3" class="cls-2" width="1.011" height="21.279" transform="translate(242.835)"/>
    </g>
  </g>
</svg>
