<svg xmlns="http://www.w3.org/2000/svg" xmlns:xlink="http://www.w3.org/1999/xlink" width="322" height="41" viewBox="0 0 322 41">
  <defs>
    <style>
      .cls-1 {
        clip-path: url(#clip-画板_3);
      }

      .cls-2 {
        fill: #231815;
      }

      .cls-3 {
        fill: #e60012;
      }

      .cls-4 {
        fill: #fff;
      }

      .cls-5 {
        fill: rgba(255,255,255,0);
      }
    </style>
    <clipPath id="clip-画板_3">
      <rect width="322" height="41"/>
    </clipPath>
  </defs>
  <g id="画板_3" data-name="画板 – 3" class="cls-1">
    <rect class="cls-5" width="322" height="41"/>
    <g id="组_10606" data-name="组 10606" transform="translate(-131.785 -128.221)">
      <g id="组_10593" data-name="组 10593" transform="translate(387.363 128.235)">
        <g id="组_10592" data-name="组 10592" transform="translate(0 0)">
          <path id="路径_6606" data-name="路径 6606" class="cls-2" d="M438.722,128.238h4.994a8.513,8.513,0,0,1,5.531,1.569,5.552,5.552,0,0,1,1.907,4.549,7.106,7.106,0,0,1-.9,3.622,6.12,6.12,0,0,1-2.518,2.4,7.873,7.873,0,0,1-3.7.845,11.536,11.536,0,0,1-2.731-.332v8.288h-2.579Zm8.555,9.582a4.393,4.393,0,0,0,1.283-3.363,3.622,3.622,0,0,0-1.256-3.081,5.946,5.946,0,0,0-3.643-.953H441.3v8.359a12.3,12.3,0,0,0,2.251.246A5.238,5.238,0,0,0,447.277,137.82Z" transform="translate(-438.722 -128.238)"/>
          <path id="路径_6607" data-name="路径 6607" class="cls-2" d="M456.509,138.6q0-1.3-.11-3.905h2.333q.082.651.151,1.57t.1,1.454a14.053,14.053,0,0,1,1.18-1.736,4.718,4.718,0,0,1,1.359-1.15,3.568,3.568,0,0,1,1.784-.44,4.493,4.493,0,0,1,1.344.187l-.356,2.358a4.044,4.044,0,0,0-1.1-.146,3.388,3.388,0,0,0-2.153.731,9.907,9.907,0,0,0-2,2.364v10.327h-2.526Z" transform="translate(-441.68 -129.267)"/>
          <path id="路径_6608" data-name="路径 6608" class="cls-2" d="M469.666,149.564a6.37,6.37,0,0,1-2.422-2.711,9.529,9.529,0,0,1-.878-4.252,10.086,10.086,0,0,1,.878-4.346,6.711,6.711,0,0,1,2.45-2.864,6.569,6.569,0,0,1,3.616-1,6.342,6.342,0,0,1,5.969,3.8,9.906,9.906,0,0,1,.864,4.273,9.631,9.631,0,0,1-.9,4.317,6.525,6.525,0,0,1-2.476,2.769,6.783,6.783,0,0,1-3.581.955A6.665,6.665,0,0,1,469.666,149.564Zm6.814-2.711a7.434,7.434,0,0,0,1.028-4.209,8.054,8.054,0,0,0-1.091-4.468,3.591,3.591,0,0,0-3.2-1.664,3.534,3.534,0,0,0-3.177,1.613,7.823,7.823,0,0,0-1.05,4.317,8.9,8.9,0,0,0,.509,3.182,4.319,4.319,0,0,0,1.5,2.039,3.981,3.981,0,0,0,2.387.709A3.5,3.5,0,0,0,476.48,146.853Z" transform="translate(-443.348 -129.267)"/>
        </g>
      </g>
      <g id="组_10595" data-name="组 10595" transform="translate(334.229 128.345)">
        <g id="组_10594" data-name="组 10594">
          <path id="路径_6609" data-name="路径 6609" class="cls-2" d="M377.748,149.082a8.937,8.937,0,0,1-2.838-1.411l.784-2.25a9.06,9.06,0,0,0,2.48,1.446,7.625,7.625,0,0,0,2.79.535,5.08,5.08,0,0,0,2.318-.485,3.38,3.38,0,0,0,1.446-1.353,3.978,3.978,0,0,0,.493-2,3.442,3.442,0,0,0-1.257-2.819,5.648,5.648,0,0,0-3.65-1.026h-2.054V137.6h1.406a5.814,5.814,0,0,0,2.493-.5,3.826,3.826,0,0,0,1.635-1.389,3.686,3.686,0,0,0,.574-2.044,3.044,3.044,0,0,0-.891-2.307,3.35,3.35,0,0,0-2.42-.854,5.617,5.617,0,0,0-2.574.62,7.4,7.4,0,0,0-2.008,1.431l-.851-1.938a8.492,8.492,0,0,1,2.467-1.61,7.9,7.9,0,0,1,3.222-.641A6.728,6.728,0,0,1,384.3,129a4.649,4.649,0,0,1,1.98,1.766,4.921,4.921,0,0,1,.7,2.621,4.8,4.8,0,0,1-1.115,3.212,5.624,5.624,0,0,1-2.953,1.8,6.282,6.282,0,0,1,3.534,1.681A4.853,4.853,0,0,1,387.8,143.7a5.671,5.671,0,0,1-.839,3.084,5.507,5.507,0,0,1-2.378,2.058,8.309,8.309,0,0,1-3.581.726A11.226,11.226,0,0,1,377.748,149.082Z" transform="translate(-374.91 -128.37)"/>
          <path id="路径_6610" data-name="路径 6610" class="cls-2" d="M394.263,146.889q-1.6-2.678-1.6-7.736,0-5.156,1.655-7.97a5.41,5.41,0,0,1,4.98-2.814,5.273,5.273,0,0,1,4.832,2.657q1.6,2.657,1.6,7.742,0,5.156-1.65,7.977a5.415,5.415,0,0,1-5,2.819A5.252,5.252,0,0,1,394.263,146.889Zm7.934-1.653a16.242,16.242,0,0,0,.98-6.382,16.535,16.535,0,0,0-.919-6.183,3.113,3.113,0,0,0-3-2.193q-4.014,0-4.014,8.661a16.125,16.125,0,0,0,.919,6.161,3.089,3.089,0,0,0,2.973,2.13A3.222,3.222,0,0,0,402.2,145.236Z" transform="translate(-377.881 -128.37)"/>
          <path id="路径_6611" data-name="路径 6611" class="cls-2" d="M412.2,128.712H423.35l-.337,2.294h-8.272v6.566h7.825v2.208h-7.825v7.236h8.691l-.284,2.322H412.2Z" transform="translate(-381.15 -128.427)"/>
        </g>
      </g>
      <g id="组_10596" data-name="组 10596" transform="translate(270.78 128.273)">
        <path id="路径_6612" data-name="路径 6612" class="cls-2" d="M302.32,135.312q-.342-.853-.734-2.018t-.638-2q.054.809.1,2.285t.041,2.805v12.843h-2.374V128.283h3.4l5.228,13.133a38.817,38.817,0,0,1,1.619,4.715q.6-1.953,1.715-4.671l5.337-13.176h3.321v20.943h-2.552V136.382q0-1.779.192-5.09-.728,2.4-1.578,4.44l-5.516,13.523h-2.017Z" transform="translate(-298.711 -128.283)"/>
        <path id="路径_6613" data-name="路径 6613" class="cls-2" d="M337.246,150.254a14.775,14.775,0,0,1-.219-2.155,6.85,6.85,0,0,1-2.147,1.735,6.113,6.113,0,0,1-2.929.709,4.95,4.95,0,0,1-2.292-.521,3.844,3.844,0,0,1-1.605-1.547,4.948,4.948,0,0,1-.59-2.5A4.551,4.551,0,0,1,329,142.38q1.538-1.353,5.1-1.352a21,21,0,0,1,2.84.2v-.391a4.867,4.867,0,0,0-.919-3.37,3.388,3.388,0,0,0-2.58-.968,8.431,8.431,0,0,0-2.284.333,11.721,11.721,0,0,0-2.107.8l-.44-2.04a11.049,11.049,0,0,1,2.231-.788,11.776,11.776,0,0,1,2.97-.369,6.7,6.7,0,0,1,3.025.622,4.255,4.255,0,0,1,1.935,2.112,9.665,9.665,0,0,1,.693,4.02v6.132q0,.97.11,2.937Zm-2.229-2.437a5.735,5.735,0,0,0,1.928-1.555v-3.355a22.049,22.049,0,0,0-2.539-.16,5.236,5.236,0,0,0-3.409.839,2.852,2.852,0,0,0-.954,2.256,2.6,2.6,0,0,0,.679,1.982,2.568,2.568,0,0,0,1.832.636A5.257,5.257,0,0,0,335.017,147.817Z" transform="translate(-303.522 -129.312)"/>
        <path id="路径_6614" data-name="路径 6614" class="cls-2" d="M347.579,148.677a5.422,5.422,0,0,1-1.049-3.745v-8.866h-1.948l.343-1.807,1.688-.261.192-3.6,2.223-.376V134h4.391l-.342,2.068h-4.048v8.606a3.691,3.691,0,0,0,.55,2.256,2.03,2.03,0,0,0,1.715.709,6.471,6.471,0,0,0,2.113-.449l.439,1.866a7.439,7.439,0,0,1-1.454.535,6.986,6.986,0,0,1-1.784.216A3.932,3.932,0,0,1,347.579,148.677Z" transform="translate(-306.386 -128.574)"/>
        <path id="路径_6615" data-name="路径 6615" class="cls-2" d="M368.994,142.59h-9.839a6.731,6.731,0,0,0,1.256,4.36,4.385,4.385,0,0,0,3.547,1.453,9.328,9.328,0,0,0,4.158-1l.59,1.909a10.539,10.539,0,0,1-2.353.911,11.735,11.735,0,0,1-2.889.318,7.092,7.092,0,0,1-3.753-.939,5.877,5.877,0,0,1-2.332-2.712,10.424,10.424,0,0,1-.789-4.26,10.784,10.784,0,0,1,.823-4.411,6.353,6.353,0,0,1,2.3-2.82,6.042,6.042,0,0,1,3.4-.969,5.318,5.318,0,0,1,3.3,1,5.868,5.868,0,0,1,1.956,2.625,9.7,9.7,0,0,1,.631,3.536Zm-2.539-1.881a5.493,5.493,0,0,0-1.036-3.217,2.976,2.976,0,0,0-2.408-1.077,3.186,3.186,0,0,0-2.476,1.092,5.9,5.9,0,0,0-1.27,3.2Z" transform="translate(-308.396 -129.312)"/>
      </g>
      <g id="组_10597" data-name="组 10597" transform="translate(131.785 128.221)">
        <path id="路径_6616" data-name="路径 6616" class="cls-2" d="M145.5,136.742H136v-8.517h-4.211v21.112H136v-8.574H145.5v8.574h4.21V128.225H145.5Z" transform="translate(-131.785 -128.222)"/>
        <path id="路径_6617" data-name="路径 6617" class="cls-2" d="M174,140.309c0,3.433-1.675,5.266-4.716,5.266-3.06,0-4.745-1.884-4.745-5.412V128.237h-4.211v12.071c0,5.939,3.243,9.344,8.9,9.344,5.709,0,8.983-3.469,8.983-9.519V128.225H174Z" transform="translate(-136.561 -128.222)"/>
        <path id="路径_6618" data-name="路径 6618" class="cls-2" d="M230.78,142.742l-4.712-14.52h-3.436l-4.711,14.52-4.584-14.508h-4.482l7.231,21.1h3.487l4.719-13.863,4.718,13.863h3.516l7.214-21.1h-4.366Z" transform="translate(-144.681 -128.221)"/>
        <path id="路径_6619" data-name="路径 6619" class="cls-2" d="M254.178,140.255h7.659v-3.846h-7.659v-4.321h11.117v-3.846h-15.27v21.085h15.67v-3.845H254.178Z" transform="translate(-151.57 -128.225)"/>
        <rect id="矩形_6217" data-name="矩形 6217" class="cls-2" width="4.154" height="21.085" transform="translate(119.146 0.002)"/>
        <path id="路径_6620" data-name="路径 6620" class="cls-2" d="M200.049,144.93l1.864,4.395h4.413l-9.056-20.978-.082-.122h-3.681l-9.142,21.1h4.3l1.764-4.086h0l.127-.309Zm-4.758-11.363,3,7.066h-.01l.2.49h-6.367l.2-.49h-.007Z" transform="translate(-140.583 -128.222)"/>
      </g>
      <g id="组_10602" data-name="组 10602" transform="translate(322.309 149.279)">
        <g id="组_10598" data-name="组 10598" transform="translate(112.361 0)">
          <path id="路径_6621" data-name="路径 6621" class="cls-3" d="M505.092,172.958a9.725,9.725,0,1,0-9.557-9.721,9.642,9.642,0,0,0,9.557,9.721" transform="translate(-495.535 -153.51)"/>
          <path id="路径_6622" data-name="路径 6622" class="cls-4" d="M502.232,159.973c-1.8-.072-2.292,2.535-2.4,2.98a.071.071,0,0,1-.022.042,4.415,4.415,0,0,1-.864-.192l-.127.364a3.317,3.317,0,0,0,.928.236,12.408,12.408,0,0,1-.654,2.015,4.1,4.1,0,0,0-1.095-.15c-.8,0-1.077.381-1.1.622-.052.624.726.922,1.265.922a2.287,2.287,0,0,0,1.6-.579,19.085,19.085,0,0,0,6.028,1.136,27.162,27.162,0,0,0,7.439-1.093l-.1-.386a22.754,22.754,0,0,1-7.187.814,18.194,18.194,0,0,1-5.753-1.008s.094-.172.147-.279a17.455,17.455,0,0,0,.717-2.037s2.234-.636,2.234-2.444a1.044,1.044,0,0,0-1.054-.965m.085.515a.439.439,0,0,1,.442.535,2.244,2.244,0,0,1-1.644,1.866s.357-2.4,1.2-2.4m3.583,1.243c-.376,0-.633.157-.633.515s.3.45.633.45.653-.146.653-.515-.382-.45-.653-.45m4.994,1.308a1.711,1.711,0,0,0-1.686,1.5c-.005.121-.021.128-.021.128a1.3,1.3,0,0,1-.864.471c-.375,0-.442-.31-.442-.515,0-.221.186-1.092.7-1.092a.588.588,0,0,1,.442.235l.148-.493a1.189,1.189,0,0,0-.717-.192,1.7,1.7,0,0,0-1.77,1.5.735.735,0,0,1-.022.15.87.87,0,0,1-.611.343c-.227,0-.231-.177-.231-.257,0-.108.443-1.672.443-1.672l-1.181.021-.4,1.523a3.358,3.358,0,0,1-1.559.536c-.465.032-.633-.261-.633-.429v-.065s.2.022.337.022c.111,0,1.5-.108,1.5-.965,0-.49-.488-.664-1.1-.664a1.729,1.729,0,0,0-1.918,1.543c0,.768.644,1.093,1.475,1.093a4.133,4.133,0,0,0,1.876-.579s.057.579.8.579a2.225,2.225,0,0,0,1.37-.579,1.3,1.3,0,0,0,1.1.557,2.1,2.1,0,0,0,1.37-.643,1.017,1.017,0,0,0,.99.6,1.258,1.258,0,0,0,.928-.386.738.738,0,0,0,.7.386,1.792,1.792,0,0,0,1.117-.45l-.1-.386a.924.924,0,0,1-.422.193.216.216,0,0,1-.211-.236,13.658,13.658,0,0,1,.443-1.672l-1.075.021-.042.172s-.16-.3-.716-.3m-7.63.429a.265.265,0,0,1,.275.236c-.027.762-.949.643-.949.643s.137-.912.674-.878m7.84.021a.329.329,0,0,1,.336.322c0,.029-.125,1.329-.758,1.329-.291,0-.3-.335-.3-.428,0-.249.191-1.223.717-1.223m-13.319,2.252a.871.871,0,0,1,.147,0,2.968,2.968,0,0,1,.864.193,1.884,1.884,0,0,1-.864.386c-.3.01-.485-.187-.485-.3,0-.187.172-.261.337-.279" transform="translate(-495.763 -154.591)"/>
        </g>
        <g id="组_10601" data-name="组 10601" transform="translate(0 5.692)">
          <g id="组_10600" data-name="组 10600">
            <g id="组_10599" data-name="组 10599">
              <path id="路径_6623" data-name="路径 6623" class="cls-2" d="M360.6,162.681a7.159,7.159,0,0,0,2.122-2.335l.532.275a10.292,10.292,0,0,1-.712,1.027v2.979h-.585v-2.312a8.918,8.918,0,0,1-1.065.938Q360.752,162.963,360.6,162.681Zm.052,2.755h3.315v-1.015h.6v1.015h3.322v.55h-3.322v1.945h-.6v-1.945h-3.315Zm2.122-2.411a13.225,13.225,0,0,0,1.808-.622v-1.919h.585v1.649a9.323,9.323,0,0,0,1.949-1.3l.4.458a12.985,12.985,0,0,1-2.347,1.449v.626c0,.341.207.511.622.511h.8a.571.571,0,0,0,.652-.5,6.316,6.316,0,0,0,.106-.886,6.166,6.166,0,0,0,.585.229q-.067.5-.142.855a.951.951,0,0,1-1.072.839h-1.132q-1,0-1-.947v-.461q-.7.31-1.478.584A4.523,4.523,0,0,0,362.77,163.025Z" transform="translate(-360.595 -160.346)"/>
              <path id="路径_6624" data-name="路径 6624" class="cls-2" d="M374.16,162.378h2.816a17.556,17.556,0,0,0,.109-2.023h.645a17.424,17.424,0,0,1-.1,2.023h3.187q-.045,2.358-.136,3.891a1.33,1.33,0,0,1-1.485,1.427q-.585,0-1.387-.038-.03-.3-.112-.709a10,10,0,0,0,1.387.1.841.841,0,0,0,.945-.9q.1-1.5.135-3.175h-2.617a6.987,6.987,0,0,1-3.083,5.006q-.21-.266-.457-.565a6.161,6.161,0,0,0,2.884-4.441H374.16Zm.533-1.51.4-.382q.622.55,1.2,1.13l-.457.435Q375.285,161.431,374.693,160.867Zm3.03,3.479.412-.374q.721.679,1.3,1.336l-.465.427Q378.4,165.04,377.723,164.346Z" transform="translate(-362.839 -160.348)"/>
              <path id="路径_6625" data-name="路径 6625" class="cls-2" d="M400.644,164.8a9.777,9.777,0,0,0,1.763-2.495l.51.274q-.352.618-.7,1.16v4.189h-.555v-3.411q-.375.49-.749.893A5.053,5.053,0,0,0,400.644,164.8Zm.037-2.282a7.475,7.475,0,0,0,1.77-2.144l.525.306a11.17,11.17,0,0,1-1.988,2.388A3.736,3.736,0,0,0,400.681,162.518Zm7.5,4.372a6.9,6.9,0,0,0-.51.481,5.685,5.685,0,0,1-1.965-2.663v3.212h-.57v-3.236a6.673,6.673,0,0,1-2.227,2.785,5.009,5.009,0,0,0-.427-.442,6.127,6.127,0,0,0,2.2-2.419h-1.838v-.527h2.295v-2.19h-1.912v-.526h1.912V160.4h.57v.961h1.958v.526h-1.958v2.19h2.34v.527h-1.928A5.128,5.128,0,0,0,408.182,166.89Zm-4.98-4.318.412-.321q.465.535.96,1.2l-.457.374Q403.651,163.128,403.2,162.571Zm2.947.9a10.08,10.08,0,0,0,1.021-1.222l.457.344q-.57.756-1.035,1.281Z" transform="translate(-367.296 -160.351)"/>
              <path id="路径_6626" data-name="路径 6626" class="cls-2" d="M414.1,163.335h2.993V160.42h.63v1.137h3.15v.565h-3.15v1.214h3.622v.58H414.1Zm2.985.854h.63v.877l.307-.4q1.785.831,2.9,1.472l-.391.565q-1.019-.633-2.819-1.518v2.754h-.63Z" transform="translate(-369.547 -160.358)"/>
              <path id="路径_6627" data-name="路径 6627" class="cls-2" d="M435.849,166.208q.286-.046.57-.1v-4.635h-.487v-.535h3.24v.535h-.563v4.242l.683-.13a4.57,4.57,0,0,0,.052.534l-.735.149v1.614h-.547v-1.5q-.964.2-2.07.431Zm1.118-3.617h1.095v-1.113h-1.095Zm0,1.634h1.095V163.11h-1.095Zm1.095,1.6v-1.079h-1.095v1.274Q437.518,165.922,438.062,165.823Zm.81-1.865H440.6q.03-.558.027-1.381h-1.549v-.565h2.025q.337-.55.885-1.61l.585.283q-.465.736-.866,1.327h1.257v.565h-1.755q0,.828-.027,1.381h2.037v.564h-1.961a4.623,4.623,0,0,0,2.066,2.71,4.623,4.623,0,0,0-.48.572,5.483,5.483,0,0,1-1.875-2.571,4.541,4.541,0,0,1-1.823,2.648q-.232-.3-.42-.5a3.907,3.907,0,0,0,1.83-2.862h-1.687Zm.495-3.243.435-.313a9.872,9.872,0,0,1,.848,1.137l-.487.343A13.875,13.875,0,0,0,439.367,160.714Z" transform="translate(-373.187 -160.355)"/>
              <path id="路径_6628" data-name="路径 6628" class="cls-2" d="M453.474,160.511l-.18.221a7.682,7.682,0,0,0,3.322,2.495q-.232.337-.4.611a9.249,9.249,0,0,1-1.155-.672v.435h-4.388v-.381q-.547.366-1.17.717a6.688,6.688,0,0,0-.375-.572,9.432,9.432,0,0,0,3.5-2.854Zm-3.21,4.059h5.227v3.388h-.6v-.511h-4.028v.527h-.6Zm4.627.557h-4.028v1.779h4.028Zm-2-3.952a9.314,9.314,0,0,1-2,1.884h4.013A9.506,9.506,0,0,1,452.9,161.175Z" transform="translate(-375.41 -160.374)"/>
              <path id="路径_6629" data-name="路径 6629" class="cls-2" d="M463.923,165.672q.015.36.052.679-1.027.679-1.53,1.091l-.36-.5a.919.919,0,0,0,.255-.686v-2.716h-.953v-.55h1.522v3.388Q463.4,166.046,463.923,165.672Zm-1.515-5.005q.577.58,1.1,1.175l-.525.443a14.459,14.459,0,0,0-1.028-1.221Zm1.492,3.678v-.527h4.088v.527a5.842,5.842,0,0,1-1.462,2.075,6.084,6.084,0,0,0,2.3.893q-.262.345-.457.619a7.227,7.227,0,0,1-2.333-1.141,9.836,9.836,0,0,1-2.58,1.2c-.13-.188-.26-.371-.39-.55a9.193,9.193,0,0,0,2.49-1.042,5.013,5.013,0,0,1-1.264-2.056Zm3.151-2.976h-1.875v.221a2.237,2.237,0,0,1-1.261,2.091,4.788,4.788,0,0,0-.435-.473,1.771,1.771,0,0,0,1.11-1.6v-.8h3.045v1.556a.3.3,0,0,0,.345.344h.825c-.025.208-.045.4-.06.565h-.99c-.47,0-.7-.265-.7-.794Zm-2.191,2.976a4.522,4.522,0,0,0,1.189,1.713,4.348,4.348,0,0,0,1.272-1.713Z" transform="translate(-377.46 -160.4)"/>
              <path id="路径_6630" data-name="路径 6630" class="cls-2" d="M476.968,165.783c.015.264.032.486.052.664q-1.2.763-1.98,1.327l-.36-.519a.872.872,0,0,0,.262-.694v-3.022h-1.065v-.55h1.665V166.7Q476.2,166.294,476.968,165.783Zm-2.325-5.272q.817.854,1.185,1.266l-.525.45a14.29,14.29,0,0,0-1.117-1.312Zm1.635,2.525h2.182v-2.625h.645v2.625h2.2v.549h-2.2v4.3h-.645v-4.3h-2.182Z" transform="translate(-379.55 -160.357)"/>
            </g>
          </g>
          <path id="路径_6631" data-name="路径 6631" class="cls-2" d="M391.98,160.376h-.624v7.646h.624v-7.646Z" transform="translate(-365.742 -160.351)"/>
        </g>
      </g>
      <g id="组_10605" data-name="组 10605" transform="translate(428.344 128.265)">
        <g id="组_10604" data-name="组 10604">
          <g id="组_10603" data-name="组 10603">
            <path id="路径_6632" data-name="路径 6632" class="cls-2" d="M487.938,138.144l.393-1.1a4.392,4.392,0,0,0,1.173.7,3.652,3.652,0,0,0,1.413.273,2.359,2.359,0,0,0,1.2-.291,1.853,1.853,0,0,0,.755-.822,2.827,2.827,0,0,0,.256-1.242,2.034,2.034,0,0,0-.625-1.61,2.571,2.571,0,0,0-1.754-.549,5.651,5.651,0,0,0-1.245.132,6.608,6.608,0,0,0-1.045.319l.4-5.509H493.9l-.138,1.156h-3.9l-.235,3.053a4.62,4.62,0,0,1,1.448-.217,4.033,4.033,0,0,1,1.714.356,2.778,2.778,0,0,1,1.216,1.072,3.242,3.242,0,0,1,.449,1.755,3.808,3.808,0,0,1-.431,1.846,2.979,2.979,0,0,1-1.223,1.221,3.824,3.824,0,0,1-1.849.429A4.718,4.718,0,0,1,487.938,138.144Z" transform="translate(-487.938 -128.303)"/>
            <path id="路径_6633" data-name="路径 6633" class="cls-2" d="M499.375,138.431a4.232,4.232,0,0,1-1.649-1.857,6.51,6.51,0,0,1-.565-2.8,6.289,6.289,0,0,1,.659-2.99,4.489,4.489,0,0,1,1.807-1.876,5.267,5.267,0,0,1,2.6-.635,6.212,6.212,0,0,1,1.633.211,6.97,6.97,0,0,1,1.442.56l-.407,1.09a5.68,5.68,0,0,0-2.626-.712,3.742,3.742,0,0,0-1.948.5A3.385,3.385,0,0,0,499,131.407a5.373,5.373,0,0,0-.476,2.361,5.844,5.844,0,0,0,.369,2.142,3.208,3.208,0,0,0,1.155,1.493,3.377,3.377,0,0,0,1.987.553,5.95,5.95,0,0,0,1.137-.113,6.384,6.384,0,0,0,1.1-.316v-2.412h-2.5v-1.134h3.758v4.237a7.9,7.9,0,0,1-1.748.647,7.758,7.758,0,0,1-1.831.225A4.871,4.871,0,0,1,499.375,138.431Z" transform="translate(-489.481 -128.274)"/>
          </g>
        </g>
      </g>
    </g>
  </g>
</svg>
