<svg xmlns="http://www.w3.org/2000/svg" width="397.134" height="50.285" viewBox="0 0 397.134 50.285">
  <g id="组_28" data-name="组 28" transform="translate(-380.484 -323.757)">
    <g id="组_3" data-name="组 3" transform="translate(380.484 323.757)">
      <g id="组_1" data-name="组 1" transform="translate(165.187)">
        <path id="路径_1" data-name="路径 1" d="M608.736,350.794a17.126,17.126,0,0,1-3.53-1.25l1.1-2.656a15.949,15.949,0,0,0,3.221,1.233,12.561,12.561,0,0,0,3.239.462,6.147,6.147,0,0,0,2.724-.539,3.743,3.743,0,0,0,1.636-1.466,4.107,4.107,0,0,0,.54-2.107,3.456,3.456,0,0,0-.676-2.168,5.4,5.4,0,0,0-1.731-1.456q-1.053-.574-2.973-1.4a26.641,26.641,0,0,1-3.47-1.757,7.415,7.415,0,0,1-2.253-2.167,5.618,5.618,0,0,1-.891-3.221,6.181,6.181,0,0,1,.959-3.436,6.285,6.285,0,0,1,2.733-2.3,9.936,9.936,0,0,1,4.172-.814,15.154,15.154,0,0,1,3.538.42,12.655,12.655,0,0,1,2.956,1.054l-.651,2.639a14.078,14.078,0,0,0-5.808-1.422,5.925,5.925,0,0,0-3.409.891,3.023,3.023,0,0,0-1.3,2.673,3.215,3.215,0,0,0,.634,2.013,5.743,5.743,0,0,0,1.765,1.474,33.749,33.749,0,0,0,3.2,1.533,26,26,0,0,1,3.461,1.756,6.682,6.682,0,0,1,2.133,2.133,6.006,6.006,0,0,1,.814,3.239,7.066,7.066,0,0,1-.986,3.778,6.357,6.357,0,0,1-2.853,2.459,10.629,10.629,0,0,1-4.455.856A16.309,16.309,0,0,1,608.736,350.794Z" transform="translate(-605.206 -324.288)"/>
        <path id="路径_2" data-name="路径 2" d="M633.254,352.461a7.68,7.68,0,0,1-3.024-3.212,10.782,10.782,0,0,1-1.1-5.037,11.412,11.412,0,0,1,1.1-5.149,8.068,8.068,0,0,1,3.058-3.392,8.528,8.528,0,0,1,4.515-1.191,8.441,8.441,0,0,1,4.438,1.165,7.886,7.886,0,0,1,3.016,3.333,11.227,11.227,0,0,1,1.08,5.063,10.926,10.926,0,0,1-1.122,5.115,7.888,7.888,0,0,1-3.093,3.281,8.824,8.824,0,0,1-4.471,1.131A8.67,8.67,0,0,1,633.254,352.461Zm8.507-3.212a8.452,8.452,0,0,0,1.285-4.986,9.157,9.157,0,0,0-1.362-5.295,4.553,4.553,0,0,0-4-1.971,4.487,4.487,0,0,0-3.966,1.91,8.9,8.9,0,0,0-1.311,5.115,10.086,10.086,0,0,0,.634,3.769,4.9,4.9,0,0,0,4.849,3.256A4.445,4.445,0,0,0,641.761,349.249Z" transform="translate(-611.545 -326.598)"/>
        <path id="路径_3" data-name="路径 3" d="M657.906,351.957a8.253,8.253,0,0,1-1.4-5.234V334.969h3.1v11.583a5.574,5.574,0,0,0,.866,3.478,3.068,3.068,0,0,0,2.544,1.079,5.628,5.628,0,0,0,2.921-.831,10.661,10.661,0,0,0,2.545-2.133V334.969h3.153v13.775q0,1.92.154,4.61h-2.827q-.12-.532-.223-1.362t-.154-1.431a14.22,14.22,0,0,1-2.948,2.279,6.994,6.994,0,0,1-3.512.856A5.09,5.09,0,0,1,657.906,351.957Z" transform="translate(-618.798 -326.727)"/>
        <path id="路径_4" data-name="路径 4" d="M683.276,339.534q0-2.588-.137-4.695h2.913q.1.582.188,1.456t.121,1.422a12.568,12.568,0,0,1,2.9-2.365,7.034,7.034,0,0,1,3.573-.874,4.994,4.994,0,0,1,4.155,1.774,8.2,8.2,0,0,1,1.414,5.2v11.771h-3.152V341.659q0-4.591-3.375-4.592a5.3,5.3,0,0,0-2.862.848,12.042,12.042,0,0,0-2.587,2.236v13.073h-3.153Z" transform="translate(-625.853 -326.598)"/>
        <path id="路径_5" data-name="路径 5" d="M720.955,350.383q-.205-1.063-.326-2.3a7.987,7.987,0,0,1-2.5,1.927,7.213,7.213,0,0,1-3.239.712,6.861,6.861,0,0,1-3.512-.917,6.476,6.476,0,0,1-2.536-2.913,11.734,11.734,0,0,1-.959-5.08,13.3,13.3,0,0,1,1.011-5.4,7.873,7.873,0,0,1,2.921-3.539,8.164,8.164,0,0,1,4.549-1.242,11.977,11.977,0,0,1,2.167.206,16.735,16.735,0,0,1,2,.48V324.1l3.153-.343V345.74q0,2.261.137,4.643Zm-2.553-2.973a6.7,6.7,0,0,0,2.124-1.705V334.74a17.049,17.049,0,0,0-1.979-.488,10.464,10.464,0,0,0-1.91-.2,4.908,4.908,0,0,0-2.9.865,5.48,5.48,0,0,0-1.893,2.579,11.577,11.577,0,0,0-.669,4.2q0,3.375,1.225,4.909a3.862,3.862,0,0,0,3.162,1.533A5.925,5.925,0,0,0,718.4,347.411Z" transform="translate(-632.408 -323.757)"/>
      </g>
      <g id="组_2" data-name="组 2" transform="translate(0 1.787)">
        <path id="路径_6" data-name="路径 6" d="M397.036,336.294H385.565v-10.1h-5.081v25.039h5.081V341.063h11.471v10.169h5.08V326.193h-5.08Z" transform="translate(-380.484 -326.189)"/>
        <path id="路径_7" data-name="路径 7" d="M435.989,340.524c0,4.072-2.021,6.245-5.691,6.245-3.692,0-5.725-2.235-5.725-6.418V326.208h-5.08v14.316c0,7.043,3.913,11.082,10.736,11.082,6.888,0,10.839-4.114,10.839-11.289V326.193h-5.079Z" transform="translate(-390.819 -326.189)"/>
        <path id="路径_8" data-name="路径 8" d="M512.275,343.409l-5.685-17.221h-4.146l-5.684,17.221-5.53-17.206h-5.407l8.725,25.028h4.207l5.693-16.441,5.692,16.441h4.242l8.7-25.028h-5.268Z" transform="translate(-408.391 -326.188)"/>
        <path id="路径_9" data-name="路径 9" d="M547.1,340.462h9.241V335.9H547.1v-5.125h13.413v-4.561H542.089v25.006H561v-4.56H547.1Z" transform="translate(-423.298 -326.195)"/>
        <rect id="矩形_1" data-name="矩形 1" width="5.012" height="25.006" transform="translate(143.757 0.002)"/>
        <path id="路径_10" data-name="路径 10" d="M471.272,346l2.248,5.212h5.325l-10.99-25.024h-4.477l-11.031,25.024h5.185l2.28-5.212Zm-5.742-13.476,3.853,8.962H461.7Z" transform="translate(-399.523 -326.189)"/>
      </g>
    </g>
    <g id="组_6" data-name="组 6" transform="translate(648.944 350.564)">
      <g id="组_4" data-name="组 4" transform="translate(29.57 10.48)">
        <path id="路径_11" data-name="路径 11" d="M806.056,374.508H813.2v1.69H807.82v1.909H813.2V379.8H807.82v1.909H813.2v1.688h-7.146Z" transform="translate(-791.26 -374.489)"/>
        <path id="路径_12" data-name="路径 12" d="M890.974,383.394h7.15v-1.688H892.74V379.8h5.386v-1.689H892.74V376.2h5.386v-1.69h-7.152Z" transform="translate(-813.757 -374.489)"/>
        <path id="路径_13" data-name="路径 13" d="M827.866,380.528l-2.9-6.02h-1.945l4.845,10.064,4.853-10.064H830.76Z" transform="translate(-795.755 -374.489)"/>
        <rect id="矩形_2" data-name="矩形 2" width="1.78" height="8.959" transform="translate(42.282)"/>
        <path id="路径_14" data-name="路径 14" d="M858.3,374.508h-1.325l-4.346,8.886h1.932l1.072-2.188h4.024l1.105,2.188h1.931Zm-1.836,4.994,1.172-2.383,1.194,2.383Z" transform="translate(-803.598 -374.489)"/>
        <path id="路径_15" data-name="路径 15" d="M874.68,374.508h-1.766v8.886h7.075v-1.688H874.68Z" transform="translate(-808.972 -374.489)"/>
        <path id="路径_16" data-name="路径 16" d="M909.033,374.508v1.69h3.426v7.2h1.764v-7.2h3.422v-1.69Z" transform="translate(-818.541 -374.489)"/>
        <path id="路径_17" data-name="路径 17" d="M790.6,374.508h-4.668v.748h.808v7.392h-.808v.746H790.6a4.277,4.277,0,0,0,4.646-4.419A4.343,4.343,0,0,0,790.6,374.508Zm0,7.2H788.5v-5.5H790.6a2.621,2.621,0,0,1,2.851,2.759A2.566,2.566,0,0,1,790.6,381.7Z" transform="translate(-785.927 -374.489)"/>
      </g>
      <g id="组_5" data-name="组 5">
        <path id="路径_18" data-name="路径 18" d="M760.221,366.681c-1.879-1.555-3.322-2.147-3.322-4.162,0-1.668-1.017-2.293-1.989-2.293a2.025,2.025,0,0,0-2.033,2.293c0,2.017-1.408,2.611-3.286,4.166A9.557,9.557,0,0,0,745.7,374.5a9.208,9.208,0,0,0,18.416,0,9.56,9.56,0,0,0-3.9-7.817m-5.311,14.778a6.962,6.962,0,1,1,6.961-6.963,6.963,6.963,0,0,1-6.961,6.963" transform="translate(-745.7 -360.226)"/>
        <path id="路径_19" data-name="路径 19" d="M758.077,377.273H756.75v3.481h1.327a1.623,1.623,0,0,0,1.8-1.735,1.658,1.658,0,0,0-1.8-1.746" transform="translate(-748.628 -364.742)"/>
        <path id="路径_20" data-name="路径 20" d="M756.033,371.354a6.092,6.092,0,1,0,6.09,6.092,6.092,6.092,0,0,0-6.09-6.092m.24,8.9h-2.951v-.471h.51v-4.676h-.51v-.471h2.951a2.746,2.746,0,0,1,2.938,2.823,2.7,2.7,0,0,1-2.938,2.795" transform="translate(-746.823 -363.174)"/>
      </g>
    </g>
    <g id="组_8" data-name="组 8" transform="translate(530.599 361.143)">
      <g id="组_7" data-name="组 7">
        <rect id="矩形_3" data-name="矩形 3" width="0.764" height="9.2"/>
      </g>
    </g>
    <g id="组_27" data-name="组 27" transform="translate(499.205 360.902)">
      <g id="组_10" data-name="组 10" transform="translate(0 0.118)">
        <g id="组_9" data-name="组 9">
          <path id="路径_21" data-name="路径 21" d="M541.994,377.363a8.779,8.779,0,0,0,2.643-2.912l.651.307a7.461,7.461,0,0,1-.881,1.264v3.639h-.69v-2.8q-.652.613-1.34,1.149A3.385,3.385,0,0,0,541.994,377.363Zm4.176,2.03h.728v1.226h4.137v.651H546.9v2.337h-.728v-2.337h-4.1v-.651h4.1Zm-1.456-1.686a14.118,14.118,0,0,0,2.222-.765V374.6h.728v2.031a11.944,11.944,0,0,0,2.413-1.571l.459.536a13.4,13.4,0,0,1-2.873,1.763v.69q-.077.766.766.689h.92q.765.039.843-.575a5.449,5.449,0,0,0,.153-1.072,3.186,3.186,0,0,0,.728.229,1.068,1.068,0,0,1-.038.23,7.436,7.436,0,0,1-.192.92q-.115.958-1.379.919h-1.149q-1.457.077-1.379-1.3v-.384q-.842.345-1.877.689a1.873,1.873,0,0,0-.23-.459Z" transform="translate(-541.994 -374.451)"/>
        </g>
      </g>
      <g id="组_12" data-name="组 12" transform="translate(13.757 0.08)">
        <g id="组_11" data-name="组 11">
          <path id="路径_22" data-name="路径 22" d="M564.539,374.4h.766a19,19,0,0,1-.153,2.49H569.1q0,1.034-.076,3.409-.039.8-.038,1.15-.039,1.954-1.878,1.838-.8.038-1.685.038c-.027-.179-.064-.421-.115-.728a.3.3,0,0,1-.038-.115h.384q.956.038,1.378.038,1.187.115,1.188-1.111c0-.127.013-.331.038-.612q.076-1.991.076-3.18h-3.256a8.19,8.19,0,0,1-3.831,6.014c-.051-.051-.14-.153-.268-.307a4.232,4.232,0,0,1-.268-.345,7.312,7.312,0,0,0,3.562-5.363H560.9v-.728h3.486A18.877,18.877,0,0,0,564.539,374.4Zm-2.95.728.5-.5c.23.2.561.5,1,.881l.459.459-.575.537A17.226,17.226,0,0,0,561.59,375.127Zm3.716,4.175.5-.459q1.11,1.034,1.608,1.609l-.574.536A15.806,15.806,0,0,0,565.305,379.3Z" transform="translate(-560.709 -374.399)"/>
        </g>
      </g>
      <g id="组_14" data-name="组 14" transform="translate(40.613 0.048)">
        <g id="组_13" data-name="组 13">
          <path id="路径_23" data-name="路径 23" d="M597.282,375.446h4.051c-.026-.052-.065-.143-.117-.273-.1-.259-.182-.442-.234-.545l.7-.273q.234.546.428,1.091h3.778v.662h-2.142l.545.312q-.35.507-.9,1.169h2.531v1.83h-.7V378.25h-7.323v1.168h-.661v-1.83h2.61a10.536,10.536,0,0,0-1.013-1.13l.506-.351h-2.065Zm3.934,3.233h.7v1.012h3.038v2.065q.039,1.208-1.207,1.208-.39.039-.7.039a2.387,2.387,0,0,0-.195-.7,6.768,6.768,0,0,0,.857.039c.39,0,.57-.181.545-.545v-1.441h-2.338v3.311h-.7v-3.311H599v2.726h-.7v-3.389h2.921Zm-.662-1.441-.468.351H602.5a.453.453,0,0,0,.078-.117,9.763,9.763,0,0,0,.974-1.364H599.5Q599.854,376.458,600.555,377.237Z" transform="translate(-597.244 -374.355)"/>
        </g>
      </g>
      <g id="组_16" data-name="组 16" transform="translate(54.061 0.864)">
        <g id="组_15" data-name="组 15">
          <path id="路径_24" data-name="路径 24" d="M621.47,381.9q-.04.471-.079.786a33.988,33.988,0,0,0-4.241.667,1.073,1.073,0,0,0-.55.2l-.392-.746a.61.61,0,0,0,.431-.471l.864-6.166H615.54v-.706h9.032v.706h-6.283l-.235,1.492H622.8l-.236,4.752q-.078.628.628.549h.079q.667.04.746-.549a9.585,9.585,0,0,0,.118-1.571c.315.105.575.2.786.275a9.32,9.32,0,0,1-.2,1.571q-.118,1.021-1.374.982h-.314q-1.336.077-1.218-1.178l.2-4.124h-4.045l-.628,4.241Q619.584,382.259,621.47,381.9Zm-2.907-2.317.471-.549q1.021.9,1.925,1.766l-.51.55A25.337,25.337,0,0,0,618.563,379.588Z" transform="translate(-615.54 -375.465)"/>
        </g>
      </g>
      <g id="组_18" data-name="组 18" transform="translate(67.776 0.431)">
        <g id="组_17" data-name="组 17">
          <path id="路径_25" data-name="路径 25" d="M634.826,374.877h7.618v.589h-3.455v.667h4.084v1.728h-.707v-1.139h-3.377v2.513h-.707v-2.513H634.9v1.1H634.2v-1.689h4.084v-.667h-3.456Zm.157,4.752h7.305v4.162h-.668v-.432H635.65v.432h-.668Zm.432-2.278h2.434v.51h-2.434Zm0,1.139h2.434V379h-2.434Zm.236,1.727v1.022h2.67v-1.022Zm0,1.572v.982h2.67v-.982Zm5.969-1.572h-2.671v1.022h2.671Zm-2.671,1.572v.982h2.671v-.982Zm.471-4.438h2.435v.51H639.42Zm0,1.139h2.435V379H639.42Z" transform="translate(-634.197 -374.877)"/>
        </g>
      </g>
      <g id="组_20" data-name="组 20" transform="translate(89.599 0.118)">
        <g id="组_19" data-name="组 19">
          <path id="路径_26" data-name="路径 26" d="M664,375.117h3.966v.667h-.589v5.262a6.027,6.027,0,0,0,.864-.157,5.986,5.986,0,0,0,.039.668,1.682,1.682,0,0,0-.432.078,4.45,4.45,0,0,0-.471.079v1.963h-.667v-1.806q-.668.117-1.963.354c-.34.078-.589.131-.746.157l-.118-.746a6.471,6.471,0,0,1,.746-.118v-5.734H664Zm1.3.667v1.375h1.414v-1.375Zm0,2V379.2h1.414v-1.414Zm0,3.652c.157-.026.366-.065.628-.118q.511-.118.786-.157V379.83H665.3Zm2.434-2.552h2.238v-1.728h-1.963v-.707h2.513q.551-.825,1.178-2l.667.314q-.51.864-1.06,1.689h1.61v.707h-2.238v1.728h2.553v.667h-2.474a5.639,5.639,0,0,0,2.592,3.377,6.46,6.46,0,0,0-.511.667,6.23,6.23,0,0,1-2.435-3.142,5.863,5.863,0,0,1-2.356,3.26q-.079-.079-.236-.275-.2-.236-.314-.354a4.559,4.559,0,0,0,2.4-3.534h-2.161Zm.629-4.045.55-.393q.589.667,1.1,1.375l-.629.432A12.067,12.067,0,0,0,668.362,374.843Z" transform="translate(-663.885 -374.45)"/>
        </g>
      </g>
      <g id="组_22" data-name="组 22" transform="translate(103.005)">
        <g id="组_21" data-name="组 21">
          <path id="路径_27" data-name="路径 27" d="M686.719,374.29l.785.118a1.035,1.035,0,0,1-.2.274,10.127,10.127,0,0,0,4.32,3.142q-.276.433-.51.786a12.263,12.263,0,0,1-1.453-.825v.511h-5.576v-.472a9.886,9.886,0,0,1-1.218.746c-.131.079-.223.132-.274.158-.132-.21-.289-.445-.472-.708A10.859,10.859,0,0,0,686.719,374.29Zm-3.142,5.223h6.6v4.163h-.707v-.629h-5.145v.629h-.746Zm.746.667v2.238h5.145V380.18Zm2.553-4.87a11.347,11.347,0,0,1-2.514,2.318h5.106A13.435,13.435,0,0,1,686.876,375.31Z" transform="translate(-682.124 -374.29)"/>
        </g>
      </g>
      <g id="组_24" data-name="组 24" transform="translate(115.623 0.431)">
        <g id="组_23" data-name="组 23">
          <path id="路径_28" data-name="路径 28" d="M702.509,381.043a5.236,5.236,0,0,0,.079.864,5.88,5.88,0,0,1-.628.354,3.755,3.755,0,0,0-1.3.942l-.471-.55a1.053,1.053,0,0,0,.315-.864v-3.378h-1.217V377.7h1.963v4.241a1.936,1.936,0,0,0,.275-.2A7.458,7.458,0,0,0,702.509,381.043Zm-1.885-6.166q.589.55,1.414,1.452l-.667.511a12.238,12.238,0,0,0-1.3-1.531Zm1.885,4.516v-.629h5.145v.629a6.58,6.58,0,0,1-1.846,2.592,7.962,7.962,0,0,0,2.906,1.06,4.347,4.347,0,0,0-.393.511,1.741,1.741,0,0,1-.157.235,14.678,14.678,0,0,1-2.985-1.3,18.326,18.326,0,0,1-3.259,1.375,4.678,4.678,0,0,0-.511-.667,12.428,12.428,0,0,0,3.181-1.217,7.142,7.142,0,0,1-1.61-2.592Zm3.966-3.692h-2.356v.275a2.678,2.678,0,0,1-1.611,2.592,2.437,2.437,0,0,0-.55-.589,2.086,2.086,0,0,0,1.414-2V375h3.848v1.924a.382.382,0,0,0,.432.432h1.061a3.218,3.218,0,0,0-.079.706h-1.256q-.9,0-.9-.942Zm.354,3.692h-3.142a5.892,5.892,0,0,0,1.532,2.16A5.172,5.172,0,0,0,706.829,379.393Z" transform="translate(-699.289 -374.877)"/>
        </g>
      </g>
      <g id="组_26" data-name="组 26" transform="translate(128.302 0.118)">
        <g id="组_25" data-name="组 25">
          <path id="路径_29" data-name="路径 29" d="M720.465,381.126c.026.34.04.615.04.824-.079.053-.223.145-.432.276q-1.689,1.06-2.042,1.335l-.471-.667a.9.9,0,0,0,.314-.785v-3.77h-1.335v-.667h2.121v4.594Q719.8,381.519,720.465,381.126Zm-2.552-6.558q1.1,1.022,1.649,1.571l-.667.55q-.825-.9-1.571-1.61Zm4.438-.118h.785v3.259h2.827v.707h-2.827v5.262h-.785v-5.262H719.6v-.707h2.75Z" transform="translate(-716.538 -374.45)"/>
        </g>
      </g>
    </g>
  </g>
</svg>
