<svg xmlns="http://www.w3.org/2000/svg" width="171.168" height="22.872" viewBox="0 0 171.168 22.872">
  <path id="路径_1" data-name="路径 1" d="M8.76-9.768Q8.256-11.16,7.7-12.48q2.328-.672,4.3-1.416v-5.472h3.12v4.152A42.285,42.285,0,0,0,20.712-18.5L22.584-16.3a55.067,55.067,0,0,1-7.464,4.1v.888q-.1,1.392,1.44,1.32h1.776a1.278,1.278,0,0,0,1.512-1.176q.12-.552.36-2.472,1.68.6,2.952.984a25.285,25.285,0,0,1-.6,3.072q-.48,2.328-3.576,2.232H15.24q-3.408.168-3.24-3.312v-.264Q10.464-10.344,8.76-9.768ZM.768-2.136V-5.064h9.576V-7.1H13.56v2.04h9.6v2.928h-9.6V2.88H10.344V-2.136Zm.888-8.016q-.5-1.92-1.008-3.432a21.032,21.032,0,0,0,6-6.168L9.7-18.7Q8.448-16.92,7.224-15.408v8.52H4.152v-5.328Q3-11.16,1.656-10.152ZM27.1,2.976Q25.824,1.416,24.672.192q7.632-4.7,8.112-11.712h-7.44v-2.952h4.128q-1.3-1.632-2.9-3.312l2.256-1.872q1.68,1.584,3.264,3.192L29.76-14.472H33.1q.192-2.808.264-5.3h3.48q-.024.312-.048.984-.168,2.9-.288,4.32h9.7q-.048.816-.144,2.808-.336,7.128-.5,9.408Q45.432,2.4,40.92,2.376q-2.16.1-4.8.1Q35.688.24,35.376-.888q1.824.144,4.176.144a2.7,2.7,0,0,0,2.064-.576,3.186,3.186,0,0,0,.672-2.136q.312-4.752.384-8.064H36.216Q35.616-2.592,27.1,2.976ZM39-3.576q-1.9-2.232-3.552-3.888l2.208-1.9q1.056.936,2.976,2.76.528.5.792.744Zm9.864-8.376v-2.28H50.28L48.7-15.864A8.255,8.255,0,0,0,51.408-19.8l2.88.1-.672,1.56h6.5v2.184H56.9q0,1.008-.048,1.728h3.792v2.28H56.712q2.016,1.08,3.864,2.184L59.28-7.9H68.9V2.9H65.832V1.968H54.24V2.9H51.168V-7.176l-.72.336q-.792-1.1-1.752-2.352,3.72-1.32,4.584-2.76ZM61.44-9.168v-9.1h8.88v9.1Zm-7.2,7.2V-.384H65.832V-1.968Zm0-3.576v1.56H65.832v-1.56ZM64.2-15.816v4.176h3.36v-4.176ZM58.44-7.9q-1.152-.864-3.24-2.256A8.14,8.14,0,0,1,52.512-7.9ZM52.3-15.96a14.106,14.106,0,0,1-1.512,1.728h3.192q.072-.768.072-1.728ZM74.208-3.12v-1.9H90.12V-6.048h-15.1V-7.416h15.1V-8.424H74.352v-1.848H93.12V-3.12H85.008L86.376-1.2,83.952-.072Q83.5-.936,82.344-2.856q-.1-.168-.144-.24l.048-.024Zm-.864-13.512v-1.752h4.008v-1.3h2.784v1.3h3.408v1.752H80.136V-15.6h3.1v1.416h-3.1v1.056h3.528v1.7H80.136V-10.3H77.352v-1.128h-4.32v-1.7h4.32v-1.056H73.7V-15.6h3.648v-1.032Zm11.04,0v-1.752h3.264v-1.3h2.784v1.3h4.1v1.752h-4.1V-15.6H94.2v1.416H90.432v1.056h4.32v1.7h-4.32V-10.3H87.648v-1.128H84.24v-1.7h3.408v-1.056h-3V-15.6h3v-1.032ZM80.832,2.64Q78,2.688,78.048-.048V-2.3h3V-.84Q80.976.48,82.416.408h3.24q1.488.1,1.752-1.08a8.236,8.236,0,0,0,.264-1.056q.048-.216.072-.336,1.44.576,2.784,1.056-.192.744-.576,1.92Q89.4,2.736,86.544,2.64Zm11.88-.576Q91.848.36,90.456-1.9L93.072-2.9q.216.384.648,1.08,1.128,1.8,1.656,2.736Zm-17.568.288a22.731,22.731,0,0,0-2.5-1.176,41.052,41.052,0,0,0,2.064-3.912l2.64.936Q76.248.5,75.144,2.352ZM102.5-7.1V-9.576h3.432q-.6-.96-1.224-1.824l3.024-.576h-6.072V-9.1q.144,8.04-2.784,12.12Q97.872,1.848,96.5.5a13.63,13.63,0,0,0,1.7-4.392,33.782,33.782,0,0,0,.408-6.432v-8.664h19.752v7.008H112.92l2.952.528-1.2,1.872h3.648V-7.1h-3.192v2.232h4.056v2.544h-4.056V2.664h-2.952V-2.328H108.36a6.771,6.771,0,0,1-3.84,5.4,6.473,6.473,0,0,1-.528-.432,19.848,19.848,0,0,0-1.848-1.464q2.9-1.632,3.168-3.5h-3.528V-4.872h3.7V-7.1Zm-.84-9.264v1.92h13.7v-1.92ZM108.48-7.1v2.232h3.7V-7.1Zm-.624-4.872q.816,1.224,1.488,2.4h1.9q.744-1.224,1.392-2.4Zm24.432,3.5,7.32,9.912h-4.656q-4.176-6.528-4.392-6.84-.6-.96-.744-1.224-.168.288-.768,1.248-.24.36-4.488,6.816H120.1l7.3-9.936-6.624-9.7h4.416q3.528,5.76,3.792,6.24.12.192.456.792.36.6.456.744.072-.12.36-.624.432-.672.6-.984.312-.552,3.648-6.168h4.416Zm22.488-5.3-3.384.624q-.648-2.688-3.072-2.64-3.936-.024-3.984,6.912a5.323,5.323,0,0,1,4.68-2.376q5.736.36,6.192,6.168-.384,6.528-6.888,6.816-7.656.192-7.536-9.96.168-10.1,7.512-10.32Q153.6-18.528,154.776-13.776Zm-6.5,12.72q3.216-.216,3.408-3.792-.168-3.528-3.48-3.7-3.5.168-3.72,3.408Q144.648-1.248,148.272-1.056Zm9.144-2.52,3.6-.768q.624,3.264,3.648,3.288,3.288-.24,3.5-3.816-.12-3.768-3.6-3.864a4.27,4.27,0,0,0-3.432,1.584l-2.952-.072L159-18.1h11.712v2.976h-8.664l-.5,5.184A6.324,6.324,0,0,1,165.5-11.3q6.024.264,6.312,6.24-.24,6.552-7.1,6.768Q158.808,1.7,157.416-3.576Z" transform="translate(-0.648 19.8)"/>
</svg>
