<?xml version="1.0" encoding="utf-8"?>
<!-- Generator: Adobe Illustrator 22.1.0, SVG Export Plug-In . SVG Version: 6.00 Build 0)  -->
<svg version="1.1" id="图层_1" xmlns="http://www.w3.org/2000/svg" xmlns:xlink="http://www.w3.org/1999/xlink" x="0px" y="0px"
	 viewBox="0 0 398 25" style="enable-background:new 0 0 398 25;" xml:space="preserve">
<g>
	<g>
		<path d="M330.1,21.3c2.5-2.4,4.3-4.4,5.6-5.8c1.3-1.4,2.3-2.8,3.1-4.3c0.8-1.4,1.2-2.9,1.2-4.4c0-1.4-0.3-2.7-0.9-3.7
			c-0.6-1-1.4-1.8-2.5-2.3c-1-0.5-2.2-0.8-3.4-0.8c-1.4,0-2.6,0.3-3.8,0.8c-1.1,0.5-2.1,1.3-3,2.2l0.9,1.6c0.9-0.9,1.8-1.7,2.7-2.2
			c0.9-0.5,1.9-0.8,3.1-0.8c0.9,0,1.8,0.2,2.5,0.5c0.7,0.4,1.3,0.9,1.8,1.7c0.4,0.8,0.7,1.7,0.7,2.8c0,1.4-0.3,2.7-1,4
			c-0.7,1.3-1.7,2.6-2.9,4c-1.2,1.4-3.1,3.3-5.6,5.7l-2.4,2.4v1.6h14.6l0.3-1.9h-12.2L330.1,21.3z M286.7,15.5h6.4v6.3
			c-0.9,0.4-1.9,0.7-2.9,0.9c-1.1,0.2-2.1,0.3-3.1,0.3c-2,0-3.7-0.5-5-1.4c-1.3-0.9-2.3-2.1-3-3.7c-0.6-1.6-1-3.3-1-5.3
			c0-2.3,0.4-4.2,1.2-5.8c0.8-1.6,1.9-2.9,3.4-3.7c1.4-0.8,3.1-1.3,4.9-1.3c1.1,0,2.2,0.2,3.3,0.5c1,0.3,2.1,0.7,3.1,1.3l0.8-1.7
			c-1-0.5-2.1-1-3.3-1.3c-1.2-0.3-2.5-0.5-3.8-0.5c-2.2,0-4.2,0.5-6,1.5c-1.7,1-3.1,2.4-4.1,4.3c-1,1.9-1.5,4.2-1.5,6.8
			c0,2.4,0.4,4.5,1.3,6.3c0.8,1.8,2.1,3.3,3.7,4.3c1.6,1,3.6,1.5,5.9,1.5c1.4,0,2.8-0.2,4.2-0.5c1.4-0.4,2.8-0.8,4-1.5v-9.2h-8.3
			V15.5z M297,2.2h7.4v22.4h2V2.2h7.1l0.4-1.8h-16.5L297,2.2z M188,0.4l-4.2,15.7c-0.6,2.3-1.1,4.2-1.4,5.7
			c-0.1-0.8-0.3-1.7-0.5-2.6c-0.2-0.9-0.6-2.1-1-3.4l-4.6-15.4h-2l-4.4,15.1c-0.3,1.2-0.6,2.2-0.9,3.1c-0.2,0.9-0.5,2-0.8,3.2
			c-0.2-1.4-0.7-3.3-1.3-5.9l-4.2-15.6h-2l6.5,24.2h2l4.2-14.6c0.7-2.4,1.4-4.8,2-7.2c0.3,1.1,0.5,2.2,0.8,3.3c0.3,1,0.7,2.4,1.2,4
			l4.2,14.5h2L190,0.4H188z M199,0.4l-9.5,24.2h2.1l2.9-7.7h10.6l3,7.7h2.1l-9.7-24.2H199z M204.5,15.1h-9.3l3.4-8.8
			c0.5-1.5,1-2.6,1.2-3.4c0.5,1.3,0.9,2.5,1.3,3.4L204.5,15.1z M208,2.1h7.4v22.4h2V2.1h7.1l0.4-1.8h-16.5L208,2.1z M239.2,22.6
			c-1,0.3-2,0.4-3,0.4c-2,0-3.7-0.4-5-1.3c-1.3-0.9-2.3-2.1-2.9-3.7c-0.6-1.6-0.9-3.4-0.9-5.4c0-2.2,0.3-4,1-5.7
			c0.6-1.6,1.6-2.9,2.9-3.8c1.3-0.9,2.8-1.3,4.7-1.3c1,0,2,0.1,2.9,0.4c0.9,0.3,1.9,0.7,2.8,1.2l0.8-1.7c-2.1-1.2-4.3-1.8-6.6-1.8
			c-2.3,0-4.2,0.5-5.8,1.6c-1.6,1.1-2.8,2.6-3.6,4.5c-0.8,1.9-1.2,4.1-1.2,6.6c0,2.4,0.4,4.6,1.2,6.4c0.8,1.8,2,3.2,3.6,4.2
			c1.6,1,3.6,1.5,6,1.5c1.3,0,2.6-0.2,3.6-0.5c1.1-0.3,2.1-0.7,3.1-1.2l-0.6-1.7C241.1,22,240.1,22.4,239.2,22.6z M262,11h-13.9V0.4
			h-2v24.2h2V12.9H262v11.6h2V0.4h-2V11z M364.9,2c-1.4-1.2-3.5-1.8-6.2-1.8h-5.5v24.2h2v-9.8c1.2,0.3,2.4,0.4,3.5,0.4
			c1.7,0,3.1-0.3,4.4-1c1.3-0.7,2.2-1.6,2.9-2.8c0.7-1.2,1-2.6,1-4.1C367.1,4.9,366.3,3.2,364.9,2z M364.3,10.5
			c-0.5,0.9-1.3,1.6-2.3,2.1c-1,0.5-2.2,0.7-3.7,0.7c-0.9,0-2-0.1-3.1-0.3V2h3.4c4.3,0,6.4,1.7,6.4,5.2
			C365.1,8.5,364.8,9.5,364.3,10.5z M375.8,6.7c-0.6,0.3-1.1,0.7-1.6,1.3c-0.5,0.5-1,1.2-1.5,2c0-0.5-0.1-1.1-0.1-1.7
			c0-0.7-0.1-1.2-0.2-1.7h-1.7l0,0.7c0,0.3,0,0.8,0.1,1.6c0,0.8,0,1.6,0,2.2v13.3h1.9V11.9c0.6-0.9,1.2-1.6,1.7-2.2
			c0.5-0.5,1-1,1.6-1.2c0.5-0.3,1.1-0.4,1.8-0.4c0.4,0,0.9,0.1,1.3,0.2l0.3-1.8c-0.5-0.2-1-0.2-1.6-0.2
			C377.1,6.2,376.4,6.4,375.8,6.7z M396,10.7c-0.7-1.4-1.6-2.5-2.8-3.3c-1.2-0.8-2.6-1.1-4.1-1.1c-1.6,0-2.9,0.4-4.1,1.2
			c-1.2,0.8-2.1,1.9-2.8,3.3c-0.7,1.4-1,3.1-1,5c0,1.9,0.3,3.5,1,4.9c0.7,1.4,1.6,2.4,2.8,3.2c1.2,0.7,2.5,1.1,4.1,1.1
			c1.5,0,2.9-0.4,4.1-1.1c1.2-0.7,2.2-1.8,2.9-3.2c0.7-1.4,1-3.1,1-4.9C397,13.7,396.7,12.1,396,10.7z M394.3,19.6
			c-0.4,1.1-1.1,2-2,2.6c-0.9,0.6-1.9,0.9-3.2,0.9c-1.3,0-2.3-0.3-3.2-0.9c-0.9-0.6-1.6-1.5-2.1-2.6c-0.5-1.1-0.7-2.5-0.7-4.1
			c0-1.5,0.2-2.8,0.7-3.9c0.4-1.1,1.1-2,2-2.7c0.9-0.6,1.9-1,3.2-1c1.3,0,2.4,0.3,3.3,1c0.9,0.7,1.6,1.6,2,2.7
			c0.5,1.2,0.7,2.5,0.7,4.1C395,17.2,394.8,18.5,394.3,19.6z M16.7,10.1H5.5V0.2h-5v24.4h5v-9.9h11.2v9.9h5V0.2h-5V10.1z M44.6,14.2
			c0,4-2,6.1-5.6,6.1c-3.6,0-5.6-2.2-5.6-6.3V0.2h-5v14C28.5,21,32.3,25,39,25c6.7,0,10.6-4,10.6-11V0.2h-5V14.2z M101.9,17
			L96.3,0.2h-4L86.7,17L81.3,0.2h-5.3l8.5,24.4h4.1l5.6-16l5.6,16h4.1l8.5-24.4h-5.1L101.9,17z M121.3,14.1h9V9.7h-9v-5h13.1V0.2
			h-18v24.4h18.5v-4.4h-13.6V14.1z M140.8,24.6h4.9V0.2h-4.9V24.6z M62.8,0.2L52.1,24.6h5.1l2.2-5.1h11.2l2.2,5.1h5.2L67.2,0.2H62.8
			z M61.2,15.1l3.7-8.7l3.8,8.7H61.2z"/>
	</g>
</g>
</svg>
