<svg xmlns="http://www.w3.org/2000/svg" width="461.047" height="25.007" viewBox="0 0 461.047 25.007">
  <defs>
    <style>
      .cls-1 {
        fill: #231815;
      }
    </style>
  </defs>
  <g id="组_1" data-name="组 1" transform="translate(-601.12 -710.88)">
    <path id="路径_100" data-name="路径 100" class="cls-1" d="M433.55,117.016a37.28,37.28,0,0,0,5.136-12.006l1.84.514a60.778,60.778,0,0,1-2.14,6.056v17.549h-1.851V115.486a19.963,19.963,0,0,1-2.258,3.585C434.032,118.385,433.753,117.7,433.55,117.016Zm5.746,9.234a17.816,17.816,0,0,0,7.287-6.763h-6.57V117.84h8.218v-2.664h1.851v2.664h8.207v1.648h-6.773a15.976,15.976,0,0,0,6.88,6.26,7.788,7.788,0,0,0-1.134,1.434,15.633,15.633,0,0,1-7.18-7.49v9.438h-1.84v-9.438a21.454,21.454,0,0,1-7.6,8Q440.018,126.972,439.3,126.25Zm2.975-20.181h13.857v8.56H442.271Zm1.851,1.744v5.029H454.18v-5.029Z" transform="translate(497.976 606.384)"/>
    <path id="路径_101" data-name="路径 101" class="cls-1" d="M459.26,107.281h8.614V127.4h-1.947V125.45H461.3v2.14H459.26Zm2.044,1.851v6.26h4.623v-6.26Zm0,8v6.42h4.623v-6.42Zm16.222-12.316h1.947v5.543h3.488v1.851h-3.488v13.129c.128,2.322-1.07,3.456-3.488,3.392q-.514,0-2.054.1h-1.851c-.064-.407-.2-1.07-.407-1.947a.953.953,0,0,1-.107-.31c.482.064,1.819.107,4,.107,1.445.139,2.087-.449,1.958-1.744V112.214H468.7v-1.851h8.828Zm-6.056,9.748q.91,1.744,2.975,5.853a7.318,7.318,0,0,0-1.947,1.07c-1.07-2.461-2.022-4.451-2.771-5.949Z" transform="translate(499.776 606.37)"/>
    <path id="路径_102" data-name="路径 102" class="cls-1" d="M483.148,118.044a11.45,11.45,0,0,0,1.637-.514,13.581,13.581,0,0,1,1.434-.407v-5.7h-2.975v-1.744h2.964V105h1.851v4.623h2.771v1.8h-2.771v5.125a3.946,3.946,0,0,1,.717-.2c.342-.128,1-.407,1.948-.813v1.947l-2.664,1.07v7.587c.2,2.054-.685,3.007-2.664,2.878a10.563,10.563,0,0,1-2.055,0,19.418,19.418,0,0,0-.31-2.054c.888.064,1.573.107,2.055.107q1.338.193,1.124-1.07v-6.88c-1.017.417-1.98.792-2.868,1.134Zm11.182,3.082a4.029,4.029,0,0,1-.107.824,19.621,19.621,0,0,1-.524,2.311,6.217,6.217,0,0,0,4,2.258V120.1h-5.746v-1.541H497.7v-2.14h-6.42v-1.541h6.42v-2.14h-5.746V111.2H497.7v-2.258h-6.666V107.4H497.7v-2.354h1.851V107.4h7.287v1.541h-7.287V111.2h5.917v3.692h2.365v1.541h-2.365v3.553h-5.949v2.461h6.57v1.53h-6.57v2.675h.2a79.94,79.94,0,0,0,8.207,0l-.813,1.84q-4.623,0-7.7-.1a8.357,8.357,0,0,1-6.42-2.568,12.776,12.776,0,0,1-3.285,3.488,18.724,18.724,0,0,0-1.231-1.434,8.411,8.411,0,0,0,4.109-6.977Zm9.341-8.56h-4.109v2.14h4.109Zm-4.109,3.692v2.14h4.109v-2.14Z" transform="translate(501.441 606.383)"/>
    <path id="路径_103" data-name="路径 103" class="cls-1" d="M516.395,121.895a13.562,13.562,0,0,0,.171,2.311,16.37,16.37,0,0,1-1.637.92c-2.054,1.166-3.21,1.98-3.392,2.461l-1.231-1.434a2.761,2.761,0,0,0,.824-2.258v-8.828h-3.21v-1.84h5.125v10.979a4.4,4.4,0,0,0,.717-.514,18.051,18.051,0,0,0,2.632-1.8Zm-4.922-16.115q1.541,1.445,3.692,3.8l-1.744,1.338a31.474,31.474,0,0,0-3.381-4Zm4.922,11.77v-1.637h13.44v1.637a17.2,17.2,0,0,1-4.815,6.773,20.844,20.844,0,0,0,7.587,2.771,11.785,11.785,0,0,0-1.07,1.327,5.518,5.518,0,0,1-.407.621,38.679,38.679,0,0,1-7.8-3.381,47.631,47.631,0,0,1-8.56,3.585,12,12,0,0,0-1.327-1.744,32.635,32.635,0,0,0,8.3-3.21,18.7,18.7,0,0,1-4.205-6.773Zm10.369-9.63H520.6v.717q.31,4.205-4.205,6.773a6.537,6.537,0,0,0-1.434-1.541q3.9-1.958,3.692-5.232v-2.568h10.058V111.1a1,1,0,0,0,1.07,1.07h2.836a8.379,8.379,0,0,0-.2,1.851h-3.285c-1.573,0-2.354-.824-2.354-2.461Zm.92,9.63h-8.207a15.238,15.238,0,0,0,4,5.639,13.59,13.59,0,0,0,4.205-5.607Z" transform="translate(503.184 606.438)"/>
    <path id="路径_104" data-name="路径 104" class="cls-1" d="M542.889,122.461q.1,1.338.1,2.14l-1.07.717c-2.943,1.851-4.719,3.007-5.35,3.488l-1.231-1.744a2.376,2.376,0,0,0,.824-2.054v-9.844H532.67v-1.744H538.2v12.016C540.149,124.13,541.722,123.189,542.889,122.461Zm-6.677-17.121c1.915,1.787,3.349,3.146,4.28,4.109l-1.744,1.434q-2.14-2.354-4.109-4.205Zm11.6-.31h2.054v8.56h7.383v1.851h-7.383v13.75h-2.054V115.377h-7.18v-1.819h7.18Z" transform="translate(504.918 606.385)"/>
    <rect id="矩形_1" data-name="矩形 1" class="cls-1" width="0.877" height="25.007" transform="translate(918.985 710.88)"/>
    <path id="路径_105" data-name="路径 105" class="cls-1" d="M348.926,123.412H338.6v-2.14l10.358-15.911h2.836v15.623h3.285l-.385,2.472h-2.932v5.222h-2.868Zm0-2.472v-11.77l-7.651,11.77Z" transform="translate(491.326 606.408)"/>
    <path id="路径_106" data-name="路径 106" class="cls-1" d="M358.12,125.958q-1.83-3-1.83-8.667t1.894-8.924a6.174,6.174,0,0,1,5.671-3.146,6,6,0,0,1,5.5,2.975q1.83,2.964,1.83,8.667T369.3,125.8a6.185,6.185,0,0,1-5.693,3.21A6,6,0,0,1,358.12,125.958Zm9.042-1.851a18.031,18.031,0,0,0,1.07-7.148,18.266,18.266,0,0,0-1.07-6.923,3.542,3.542,0,0,0-3.413-2.461q-4.58,0-4.58,9.705a17.881,17.881,0,0,0,1.07,6.9,3.51,3.51,0,0,0,3.392,2.386,3.681,3.681,0,0,0,3.52-2.461Z" transform="translate(492.565 606.398)"/>
    <path id="路径_107" data-name="路径 107" class="cls-1" d="M275.042,113.146c-.268-.631-.546-1.38-.835-2.258s-.546-1.616-.728-2.236c0,.61.075,1.455.107,2.557s0,2.14,0,3.135v14.371h-2.7V105.281h3.874l5.992,14.681a41.448,41.448,0,0,1,1.84,5.265,52.271,52.271,0,0,1,1.947-5.222l6.078-14.745H294.4v23.434h-2.9V114.345c0-1.327.075-3.21.214-5.693a51.2,51.2,0,0,1-1.787,4.965l-6.281,15.13h-2.3Z" transform="translate(486.584 606.401)"/>
    <path id="路径_108" data-name="路径 108" class="cls-1" d="M307.529,128.34a15.965,15.965,0,0,1-.257-2.408,7.7,7.7,0,0,1-2.44,1.937,7.116,7.116,0,0,1-3.339.792,5.735,5.735,0,0,1-2.6-.578,4.387,4.387,0,0,1-1.83-1.733,5.468,5.468,0,0,1-.674-2.8,5.04,5.04,0,0,1,1.723-3.959c1.166-1.07,3.092-1.519,5.8-1.519a24.548,24.548,0,0,1,3.21.225v-.428a5.4,5.4,0,0,0-1.07-3.777,3.916,3.916,0,0,0-2.943-1.07,9.973,9.973,0,0,0-2.6.375,13.911,13.911,0,0,0-2.4.888L297.621,112a12.841,12.841,0,0,1,2.632-.974,14.006,14.006,0,0,1,3.381-.407,7.812,7.812,0,0,1,3.446.7,4.762,4.762,0,0,1,2.193,2.365,10.475,10.475,0,0,1,.792,4.494v6.859c0,.728,0,1.819.128,3.285Zm-2.536-2.729a6.623,6.623,0,0,0,2.194-1.733v-3.756a26.148,26.148,0,0,0-2.889-.182,6.078,6.078,0,0,0-3.884.942,3.146,3.146,0,0,0-1.07,2.525,2.867,2.867,0,0,0,.77,2.215,2.975,2.975,0,0,0,2.087.717,6.11,6.11,0,0,0,2.793-.728Z" transform="translate(488.369 606.776)"/>
    <path id="路径_109" data-name="路径 109" class="cls-1" d="M314.963,127.666a5.992,5.992,0,0,1-1.2-4.184v-9.919H311.55l.4-2.022,1.915-.289.225-4.034,2.525-.417v4.494h5.051l-.385,2.311h-4.612v9.63a4.077,4.077,0,0,0,.621,2.525,2.322,2.322,0,0,0,1.958.792,7.32,7.32,0,0,0,2.408-.5l.492,2.14a9.178,9.178,0,0,1-1.648.6,8.217,8.217,0,0,1-2.033.235A4.516,4.516,0,0,1,314.963,127.666Z" transform="translate(489.431 606.509)"/>
    <path id="路径_110" data-name="路径 110" class="cls-1" d="M336.3,119.762H325.112a7.415,7.415,0,0,0,1.423,4.869,5.018,5.018,0,0,0,4.045,1.626,10.7,10.7,0,0,0,4.73-1.07l.663,2.14a12.016,12.016,0,0,1-2.675,1.07,13.61,13.61,0,0,1-3.285.353,8.2,8.2,0,0,1-4.28-1.07,6.591,6.591,0,0,1-2.654-3.039,11.46,11.46,0,0,1-.9-4.762,11.974,11.974,0,0,1,.931-4.933,7.191,7.191,0,0,1,2.622-3.157,7,7,0,0,1,3.863-1.07,6.174,6.174,0,0,1,3.756,1.07,6.591,6.591,0,0,1,2.226,2.943,10.572,10.572,0,0,1,.717,3.948Zm-2.889-2.14a6.078,6.078,0,0,0-1.177-3.6,3.392,3.392,0,0,0-2.739-1.209,3.681,3.681,0,0,0-2.825,1.22,6.623,6.623,0,0,0-1.477,3.617Z" transform="translate(490.176 606.783)"/>
    <path id="路径_111" data-name="路径 111" class="cls-1" d="M168.539,143.036H157.85V133.63h-4.73v23.327h4.73v-9.48h10.69v9.48h4.74V133.63h-4.74Z" transform="translate(448 578.053)"/>
    <path id="路径_112" data-name="路径 112" class="cls-1" d="M165.121,118.634c0,3.788-1.883,5.821-5.35,5.821s-5.35-2.14-5.35-5.982V105.291h-4.74v13.343c0,6.559,3.649,10.326,10,10.326s10.1-3.831,10.1-10.518V105.28h-4.73Z" transform="translate(478.095 606.402)"/>
    <path id="路径_113" data-name="路径 113" class="cls-1" d="M245.193,149.671l-5.3-16.051h-3.863l-5.3,16.051-5.158-16.029H220.55l8.122,23.316H232.6l5.3-15.323,5.307,15.323h3.959l8.111-23.316h-4.911Z" transform="translate(452.723 578.052)"/>
    <path id="路径_114" data-name="路径 114" class="cls-1" d="M261.236,146.919h8.6V142.66h-8.6v-4.772h12.5V133.64H256.56v23.305h17.624v-4.259H261.236Z" transform="translate(455.245 578.053)"/>
    <rect id="矩形_2" data-name="矩形 2" class="cls-1" width="4.665" height="23.295" transform="translate(735.067 711.672)"/>
    <path id="路径_115" data-name="路径 115" class="cls-1" d="M188.4,123.738l2.14,4.858h4.965l-10.24-23.316h-4.173L170.81,128.6h4.837l2.14-4.858Zm-5.35-12.552,3.6,8.346h-7.159Z" transform="translate(479.574 606.402)"/>
    <path id="路径_116" data-name="路径 116" class="cls-1" d="M381.56,105.321h6.549a8.7,8.7,0,0,1,5.543,1.562,5.447,5.447,0,0,1,1.947,4.5,6.9,6.9,0,0,1-.749,3.3,7.416,7.416,0,0,1-1.862,2.333,8.8,8.8,0,0,1-2.333,1.391l7.073,10.337h-3.5l-6.356-9.555H384.5v9.555H381.56Zm5.6,11.428a6.185,6.185,0,0,0,2.836-.631,4.622,4.622,0,0,0,1.915-1.819,5.35,5.35,0,0,0,.685-2.686,3.392,3.392,0,0,0-1.241-2.921,5.949,5.949,0,0,0-3.585-.92H384.5v8.978Z" transform="translate(494.335 606.404)"/>
    <path id="路径_117" data-name="路径 117" class="cls-1" d="M400.7,128.643a15.289,15.289,0,0,1-3.21-1.177l1-2.5a14.978,14.978,0,0,0,2.943,1.166,11.117,11.117,0,0,0,2.943.428,5.35,5.35,0,0,0,2.483-.5,3.446,3.446,0,0,0,1.5-1.391,4.024,4.024,0,0,0,.492-1.98,3.328,3.328,0,0,0-.621-2.054,4.891,4.891,0,0,0-1.573-1.37c-.642-.364-1.541-.8-2.707-1.316a24.106,24.106,0,0,1-3.21-1.659,7.052,7.052,0,0,1-2.055-2.044,5.544,5.544,0,0,1-.813-3.05,6.025,6.025,0,0,1,.877-3.21,5.81,5.81,0,0,1,2.493-2.14,8.753,8.753,0,0,1,3.8-.77,13.14,13.14,0,0,1,3.21.4,11.5,11.5,0,0,1,2.7,1l-.589,2.493a12.434,12.434,0,0,0-5.3-1.348,5.2,5.2,0,0,0-3.1.845,2.889,2.889,0,0,0-1.188,2.525,3.113,3.113,0,0,0,.578,1.894,5.351,5.351,0,0,0,1.605,1.391,28.542,28.542,0,0,0,2.921,1.445,25.06,25.06,0,0,1,3.157,1.659,6.142,6.142,0,0,1,1.937,2.022,5.832,5.832,0,0,1,.749,3.05,6.9,6.9,0,0,1-.9,3.574,5.918,5.918,0,0,1-2.6,2.322,9.47,9.47,0,0,1-4.066.8A13.91,13.91,0,0,1,400.7,128.643Z" transform="translate(495.45 606.388)"/>
  </g>
</svg>
