<svg xmlns="http://www.w3.org/2000/svg" xmlns:xlink="http://www.w3.org/1999/xlink" width="309.81" height="23.95" viewBox="0 0 309.81 23.95">
  <defs>
    <clipPath id="clip-path">
      <rect id="矩形_3273" data-name="矩形 3273" width="309.81" height="23.95" fill="none"/>
    </clipPath>
  </defs>
  <g id="矢量智能对象-02" clip-path="url(#clip-path)">
    <path id="路径_3037" data-name="路径 3037" d="M150.15,9c-.25-.59-.51-1.3-.79-2.11s-.51-1.52-.68-2.1c0,.56.07,1.36.1,2.39s0,2,0,2.95V23.58h-2.54v-22h3.65l5.6,13.78a38.452,38.452,0,0,1,1.74,4.94,46.7,46.7,0,0,1,1.84-4.9L164.8,1.58h3.56v22h-2.74V10.11q0-1.87.21-5.34c-.52,1.67-1.09,3.23-1.69,4.65l-5.92,14.19h-2.17Z" fill="#231815"/>
    <path id="路径_3038" data-name="路径 3038" d="M182.88,23.58a14.93,14.93,0,0,1-.24-2.26,7.41,7.41,0,0,1-2.38,1.82,7,7,0,0,1-3.24.74,5.76,5.76,0,0,1-2.53-.54,4.2,4.2,0,0,1-1.77-1.62,5,5,0,0,1-.66-2.63,4.68,4.68,0,0,1,1.7-3.77q1.71-1.43,5.65-1.42a24.71,24.71,0,0,1,3.14.21V13.7a4.9,4.9,0,0,0-1-3.53,3.85,3.85,0,0,0-2.85-1,10,10,0,0,0-2.53.35,13.73,13.73,0,0,0-2.33.83l-.48-2.14a13,13,0,0,1,2.46-.82A13.66,13.66,0,0,1,179.09,7a7.8,7.8,0,0,1,3.34.65,4.58,4.58,0,0,1,2.14,2.22,9.7,9.7,0,0,1,.77,4.22V20.5c0,.68,0,1.71.12,3.08ZM180.42,21a6.34,6.34,0,0,0,2.13-1.63v-3.5a26,26,0,0,0-2.81-.16,6,6,0,0,0-3.77.88A2.91,2.91,0,0,0,174.92,19a2.64,2.64,0,0,0,.75,2.08,2.9,2.9,0,0,0,2,.67,6.12,6.12,0,0,0,2.73-.68" fill="#231815"/>
    <path id="路径_3039" data-name="路径 3039" d="M191.2,22.7a5.51,5.51,0,0,1-1.2-3.93V9.47h-2.15l.38-1.9,1.86-.27.22-3.78,2.45-.39V7.3h4.86l-.38,2.17H192.8v9a3.78,3.78,0,0,0,.61,2.37,2.34,2.34,0,0,0,1.9.74,7.65,7.65,0,0,0,2.34-.47l.48,2a8.389,8.389,0,0,1-1.61.56,8.14,8.14,0,0,1-2,.22,4.49,4.49,0,0,1-3.35-1.18" fill="#231815"/>
    <path id="路径_3040" data-name="路径 3040" d="M212.73,15.54H201.85a6.76,6.76,0,0,0,1.39,4.57,5,5,0,0,0,3.92,1.53,10.76,10.76,0,0,0,4.6-1.05l.65,2a12.239,12.239,0,0,1-2.6.95,13.77,13.77,0,0,1-3.2.34,8.15,8.15,0,0,1-4.15-1,6.27,6.27,0,0,1-2.58-2.85,10.48,10.48,0,0,1-.87-4.47,10.73,10.73,0,0,1,.91-4.62,6.74,6.74,0,0,1,2.54-3,7,7,0,0,1,3.76-1,6.13,6.13,0,0,1,3.65,1A6.25,6.25,0,0,1,212,10.78a9.84,9.84,0,0,1,.7,3.71Zm-2.81-2a5.52,5.52,0,0,0-1.15-3.38,3.37,3.37,0,0,0-2.66-1.13,3.61,3.61,0,0,0-2.74,1.15,6,6,0,0,0-1.4,3.36Z" fill="#231815"/>
    <path id="路径_3041" data-name="路径 3041" d="M227.88,12.68a5.27,5.27,0,0,1,1.79,1.93,5.68,5.68,0,0,1,.65,2.78,6,6,0,0,1-.87,3.23,5.89,5.89,0,0,1-2.57,2.18,9.66,9.66,0,0,1-4.07.78h-6.49v-22h6a8,8,0,0,1,5,1.33,4.39,4.39,0,0,1,1.71,3.68A5,5,0,0,1,228,9.83a5.65,5.65,0,0,1-2.78,1.87,6.87,6.87,0,0,1,2.63,1m-8.78-1.89h2.74a4.93,4.93,0,0,0,2.32-.53,3.8,3.8,0,0,0,2.09-3.42,2.52,2.52,0,0,0-1.09-2.23A5.63,5.63,0,0,0,222,3.87h-2.9Zm7.17,9.48a3.67,3.67,0,0,0,1.24-3,3.79,3.79,0,0,0-1.39-3.17,6.38,6.38,0,0,0-4-1.09h-3v8.3h3.38a5.79,5.79,0,0,0,3.79-1.05" fill="#231815"/>
    <path id="路径_3042" data-name="路径 3042" d="M236.13,22.91a6.78,6.78,0,0,1-2.65-2.85,9.63,9.63,0,0,1-1-4.46,10.21,10.21,0,0,1,1-4.56,7.06,7.06,0,0,1,2.68-3A7.89,7.89,0,0,1,244,8a7,7,0,0,1,2.64,3,10.06,10.06,0,0,1,.95,4.49,9.7,9.7,0,0,1-1,4.53,6.86,6.86,0,0,1-2.71,2.9,8.046,8.046,0,0,1-7.77,0m7.46-2.85a7.53,7.53,0,0,0,1.12-4.41A8.13,8.13,0,0,0,243.52,11a4.41,4.41,0,0,0-7-.06,8,8,0,0,0-1.14,4.53,9,9,0,0,0,.55,3.34,4.54,4.54,0,0,0,1.64,2.14,4.46,4.46,0,0,0,2.61.74,3.9,3.9,0,0,0,3.4-1.59" fill="#231815"/>
    <path id="路径_3043" data-name="路径 3043" d="M253.15,22.91a6.78,6.78,0,0,1-2.65-2.85,9.63,9.63,0,0,1-1-4.46,10.21,10.21,0,0,1,1-4.56,7.06,7.06,0,0,1,2.68-3A7.89,7.89,0,0,1,261,8a7,7,0,0,1,2.64,3,10.06,10.06,0,0,1,.95,4.49,9.7,9.7,0,0,1-1,4.53,6.86,6.86,0,0,1-2.71,2.9,8.046,8.046,0,0,1-7.77,0m7.46-2.85a7.53,7.53,0,0,0,1.12-4.41A8.13,8.13,0,0,0,260.54,11a4.41,4.41,0,0,0-7-.06,8,8,0,0,0-1.15,4.53,9,9,0,0,0,.56,3.34,4.54,4.54,0,0,0,1.64,2.14,4.46,4.46,0,0,0,2.61.74,3.9,3.9,0,0,0,3.4-1.59" fill="#231815"/>
    <path id="路径_3044" data-name="路径 3044" d="M267.76.3l2.76-.3V14.96l7.03-7.66h3.16l-6.34,6.78,6.95,9.5h-3.3l-5.52-7.72-1.98,1.71v6.01h-2.76Z" fill="#231815"/>
    <path id="路径_3045" data-name="路径 3045" d="M14.54,10.5H4.46V1.62H0v22H4.46V14.69H14.54v8.93h4.47v-22H14.54Z" fill="#231815"/>
    <path id="路径_3046" data-name="路径 3046" d="M39.69,14.21c0,3.58-1.78,5.49-5,5.49s-5-2-5-5.64V1.63H25.2V14.21c0,6.19,3.43,9.74,9.43,9.74s9.52-3.61,9.52-9.92V1.62H39.69Z" fill="#231815"/>
    <path id="路径_3047" data-name="路径 3047" d="M91.28,16.75l-5-15.13H82.64L77.65,16.75,72.79,1.63H68.04L75.7,23.62h3.7l5-14.44,5,14.44h3.73l7.65-21.99H96.15Z" fill="#231815"/>
    <path id="路径_3048" data-name="路径 3048" d="M108.78,14.15h8.12v-4h-8.12V5.64h11.79v-4H104.38V23.61h16.61V19.6H108.78Z" fill="#231815"/>
    <rect id="矩形_3272" data-name="矩形 3272" width="4.4" height="21.97" transform="translate(126.32 1.62)" fill="#231815"/>
    <path id="路径_3049" data-name="路径 3049" d="M63,19l2,4.58h4.7L60,1.62H56.11l-9.69,22H51L53,19ZM58,7.19l3.39,7.87H54.64Z" fill="#231815"/>
    <path id="路径_3050" data-name="路径 3050" d="M299.49,12.37,292.86,1.61h3.2l4.96,8.51,5.17-8.51h3.07l-6.58,10.62,7.13,11.35h-3.26l-5.47-9.22-5.68,9.22h-3.08Z" fill="#231815"/>
  </g>
</svg>
