<svg xmlns="http://www.w3.org/2000/svg" xmlns:xlink="http://www.w3.org/1999/xlink" width="361" height="49" viewBox="0 0 361 49">
  <defs>
    <style>
      .cls-1 {
        clip-path: url(#clip-cn-n-logo_);
      }

      .cls-2 {
        fill: #e60012;
      }

      .cls-3 {
        fill: #fff;
      }
    </style>
    <clipPath id="clip-cn-n-logo_">
      <rect width="361" height="49"/>
    </clipPath>
  </defs>
  <g id="cn-n-logo_" data-name="cn-n-logo " class="cls-1">
    <g id="组_95" data-name="组 95" transform="translate(8733 -6116)">
      <g id="组_35" data-name="组 35" transform="translate(-8732.674 6115.786)">
        <g id="组_25" data-name="组 25" transform="translate(259.11 0.583)">
          <path id="路径_190" data-name="路径 190" d="M274.1,88.637l1.525,1.048a63.014,63.014,0,0,1-6.193,4.668L268.1,93.02A34.621,34.621,0,0,0,274.1,88.637Zm9.716-6.382q3.334,2.765,6.478,5.62l-1.524,1.143q-.764-.76-1.81-1.809-3.811.191-6.287.19v4.859q.094,2.857-2.858,2.858h-2.858a7.964,7.964,0,0,0-.286-1.524.737.737,0,0,1-.094-.286h.952q1.237.094,1.906.094,1.618.1,1.524-1.333V87.494q-3.907.1-6.383.286a21.445,21.445,0,0,0-2.571.19l-.667-1.619A9.159,9.159,0,0,0,272.1,85.3a71.166,71.166,0,0,0,6.572-3.334q-1.237.1-4,.19-1.335.1-2,.1a12.336,12.336,0,0,0-1.906.286l-.666-1.525a10.4,10.4,0,0,0,2.1-.952q1.618-.951,5.049-3.144.857-.571,1.333-.857-1.428.1-4,.191-3.24.191-4.763.285a6.083,6.083,0,0,0-.382-1.715q11.812-.571,19.529-1.239l.476,1.62q-5.526.477-9.907.761l1.143.762q-4.1,2.478-7.144,4.1,1.333-.092,4.667-.19,2-.094,2.954-.1a50.124,50.124,0,0,0,4.667-3.047l1.619,1.237a148.891,148.891,0,0,1-14.1,7.526q6.86-.189,12-.476-.477-.475-1.619-1.428a14.286,14.286,0,0,1-1.239-1.048Zm-.857,7.526,1.143-1.239q1.808,1.239,5.335,3.716a8.361,8.361,0,0,0,1.048.666l-1.334,1.429c-.253-.191-.6-.476-1.048-.857Q285.916,91.78,282.964,89.78Z" transform="translate(-268.104 -73.205)"/>
          <path id="路径_191" data-name="路径 191" d="M290.867,86.313a23.926,23.926,0,0,0,5.811-10.573h-4.954V74.12h12.67v1.62h-5.906c-.064.19-.128.412-.19.666q-.479,1.43-1.143,3.049h6v1.715a20.721,20.721,0,0,1-10,14.193,9.026,9.026,0,0,0-1.237-1.333q7.9-4.667,9.43-12.956h-4.858q-.193.382-.571,1.048-.477.765-.667,1.143c.443.382.572.509.381.382q1.9,1.524,2.953,2.476l-1.143,1.429q-1.336-1.333-3.143-2.858c-.128.191-.35.509-.668.952q-.285.384-1.618,2a8.2,8.2,0,0,1-.572-.667C291.183,86.663,290.993,86.442,290.867,86.313Zm16.289,3.62h-1.715v-14.1h1.715Zm3.334-16.67h1.81V92.22q.189,2.952-2.858,2.953h-3.525a10.177,10.177,0,0,0-.381-2q2.379.094,3.334.1,1.808.094,1.619-1.715Z" transform="translate(-264.042 -73.263)"/>
        </g>
        <g id="组_26" data-name="组 26" transform="translate(325.823 0.291)">
          <path id="路径_192" data-name="路径 192" d="M324.715,93.222l.852-2.259a9.688,9.688,0,0,0,2.543,1.444,8.335,8.335,0,0,0,3.066.561,5.337,5.337,0,0,0,2.61-.6,3.919,3.919,0,0,0,1.638-1.691,5.586,5.586,0,0,0,.554-2.557,4.069,4.069,0,0,0-1.354-3.314,5.787,5.787,0,0,0-3.808-1.129,12.97,12.97,0,0,0-2.7.269,14.9,14.9,0,0,0-2.266.659l.869-11.338h10.934l-.3,2.378h-8.466l-.509,6.282a10.488,10.488,0,0,1,3.142-.449,9.153,9.153,0,0,1,3.717.733,5.974,5.974,0,0,1,2.641,2.206,6.427,6.427,0,0,1,.972,3.613,7.5,7.5,0,0,1-.936,3.8,6.306,6.306,0,0,1-2.655,2.512,8.67,8.67,0,0,1-4.008.883A10.593,10.593,0,0,1,324.715,93.222Z" transform="translate(-324.715 -72.97)"/>
          <path id="路径_193" data-name="路径 193" d="M343.68,93.918A8.856,8.856,0,0,1,340.1,90.1a12.785,12.785,0,0,1-1.227-5.759,12.418,12.418,0,0,1,1.428-6.155,9.487,9.487,0,0,1,3.919-3.859,11.928,11.928,0,0,1,5.632-1.308,14.173,14.173,0,0,1,3.545.434,15.668,15.668,0,0,1,3.126,1.151l-.883,2.244a12.836,12.836,0,0,0-5.7-1.466,8.463,8.463,0,0,0-4.226,1.032,7.109,7.109,0,0,0-2.864,3.051,10.576,10.576,0,0,0-1.032,4.862,11.446,11.446,0,0,0,.8,4.405,6.654,6.654,0,0,0,2.505,3.073,7.611,7.611,0,0,0,4.308,1.137,13.6,13.6,0,0,0,2.468-.232,14.509,14.509,0,0,0,2.393-.651V87.09h-5.415V84.757h8.153v8.721a18.126,18.126,0,0,1-7.764,1.795A11.013,11.013,0,0,1,343.68,93.918Z" transform="translate(-322.188 -73.015)"/>
        </g>
        <g id="组_31" data-name="组 31" transform="translate(210.585 28.426)">
          <g id="组_27" data-name="组 27" transform="translate(117.355)">
            <path id="路径_194" data-name="路径 194" class="cls-2" d="M336.577,117.024a10.067,10.067,0,1,0-10.066-10.065,10.067,10.067,0,0,0,10.066,10.065" transform="translate(-326.511 -96.89)"/>
            <path id="路径_195" data-name="路径 195" class="cls-3" d="M333.144,101.617c-1.9-.073-2.413,2.626-2.53,3.086a.065.065,0,0,1-.022.044,4.669,4.669,0,0,1-.91-.2l-.133.377a3.539,3.539,0,0,0,.976.244,12.661,12.661,0,0,1-.687,2.087,4.394,4.394,0,0,0-1.155-.156c-.838,0-1.132.394-1.155.643-.054.647.765.955,1.333.955a2.43,2.43,0,0,0,1.686-.6,20.4,20.4,0,0,0,6.348,1.176,29.048,29.048,0,0,0,7.835-1.132l-.111-.4a24.321,24.321,0,0,1-7.569.844,19.461,19.461,0,0,1-6.06-1.043s.1-.178.155-.289a18,18,0,0,0,.754-2.108s2.353-.659,2.353-2.531a1.094,1.094,0,0,0-1.11-1m.09.534a.457.457,0,0,1,.466.554,2.343,2.343,0,0,1-1.731,1.931s.376-2.485,1.266-2.485m3.773,1.287c-.4,0-.666.163-.666.533s.316.467.666.467.688-.151.688-.534-.4-.465-.688-.465m5.259,1.354a1.789,1.789,0,0,0-1.775,1.554c-.006.125-.022.133-.022.133a1.379,1.379,0,0,1-.911.488c-.394,0-.465-.322-.465-.533,0-.229.2-1.132.733-1.132a.619.619,0,0,1,.466.244l.156-.51a1.259,1.259,0,0,0-.754-.2,1.787,1.787,0,0,0-1.865,1.553.679.679,0,0,1-.022.156.916.916,0,0,1-.643.355c-.239,0-.244-.183-.244-.266,0-.112.467-1.731.467-1.731l-1.243.022-.422,1.577a3.568,3.568,0,0,1-1.643.554c-.49.034-.666-.269-.666-.443v-.067s.206.022.356.022c.117,0,1.576-.112,1.576-1,0-.507-.514-.687-1.155-.687a1.812,1.812,0,0,0-2.02,1.6c0,.794.679,1.131,1.554,1.131a4.408,4.408,0,0,0,1.975-.6s.059.6.844.6a2.361,2.361,0,0,0,1.442-.6,1.369,1.369,0,0,0,1.155.576,2.223,2.223,0,0,0,1.442-.666,1.07,1.07,0,0,0,1.043.622,1.334,1.334,0,0,0,.977-.4.778.778,0,0,0,.733.4,1.9,1.9,0,0,0,1.176-.467l-.111-.4a.98.98,0,0,1-.444.2.226.226,0,0,1-.223-.245,13.935,13.935,0,0,1,.468-1.731l-1.132.022-.045.178s-.169-.311-.755-.311m-8.035.444a.277.277,0,0,1,.289.244c-.028.788-1,.666-1,.666s.144-.944.711-.91m8.257.021a.344.344,0,0,1,.355.334c0,.031-.132,1.376-.8,1.376-.305,0-.311-.346-.311-.444,0-.257.2-1.266.755-1.266m-14.028,2.331a.856.856,0,0,1,.156,0,3.177,3.177,0,0,1,.91.2,1.994,1.994,0,0,1-.91.4c-.315.009-.511-.194-.511-.311,0-.192.181-.271.356-.289" transform="translate(-326.33 -96.047)"/>
          </g>
          <g id="组_30" data-name="组 30" transform="translate(0 5.934)">
            <g id="组_29" data-name="组 29">
              <g id="组_28" data-name="组 28">
                <path id="路径_196" data-name="路径 196" d="M226.927,104.343a7.455,7.455,0,0,0,2.236-2.418l.561.285a10.612,10.612,0,0,1-.751,1.063v3.084h-.616v-2.393a9.363,9.363,0,0,1-1.121.972Q227.093,104.635,226.927,104.343Zm.055,2.852h3.492v-1.051h.632V107.2h3.5v.569h-3.5v2.014h-.632v-2.014h-3.492Zm2.236-2.5a14.091,14.091,0,0,0,1.9-.645v-1.987h.616v1.706a9.8,9.8,0,0,0,2.053-1.342l.42.474a13.692,13.692,0,0,1-2.472,1.5v.648c0,.354.218.529.655.529h.838a.6.6,0,0,0,.687-.513,6.577,6.577,0,0,0,.111-.917q.387.166.615.237-.071.514-.15.885a1,1,0,0,1-1.129.869h-1.194q-1.05,0-1.05-.979v-.478q-.735.322-1.557.6A4.542,4.542,0,0,0,229.218,104.7Z" transform="translate(-226.927 -101.925)"/>
                <path id="路径_197" data-name="路径 197" d="M237.071,104.026h2.967a18.089,18.089,0,0,0,.114-2.094h.679a17.858,17.858,0,0,1-.11,2.094h3.356q-.048,2.441-.141,4.028a1.391,1.391,0,0,1-1.565,1.478q-.615,0-1.461-.04-.032-.308-.118-.734a10.669,10.669,0,0,0,1.461.1.878.878,0,0,0,.995-.932q.111-1.548.143-3.287h-2.756a7.218,7.218,0,0,1-3.247,5.183q-.223-.276-.482-.584a6.371,6.371,0,0,0,3.037-4.6h-2.872Zm.561-1.564.427-.4q.656.569,1.264,1.17l-.482.45Q238.256,103.047,237.632,102.462Zm3.192,3.6.434-.387q.758.7,1.375,1.382l-.49.442Q241.535,106.784,240.824,106.064Z" transform="translate(-225.146 -101.924)"/>
                <path id="路径_198" data-name="路径 198" d="M256.732,106.528a10.121,10.121,0,0,0,1.857-2.583l.536.284q-.371.64-.742,1.2v4.337H257.8v-3.531q-.394.506-.79.924A5.122,5.122,0,0,0,256.732,106.528Zm.04-2.363a7.79,7.79,0,0,0,1.864-2.219l.553.316a11.606,11.606,0,0,1-2.093,2.472A3.944,3.944,0,0,0,256.772,104.165Zm7.9,4.526c-.2.17-.378.335-.537.5a5.9,5.9,0,0,1-2.069-2.758v3.326h-.6v-3.349a6.943,6.943,0,0,1-2.346,2.884,5.439,5.439,0,0,0-.45-.458,6.392,6.392,0,0,0,2.314-2.5h-1.936v-.544h2.418v-2.267H259.45v-.546h2.015v-.995h.6v.995h2.062v.546h-2.062v2.267h2.465v.544H262.5A5.339,5.339,0,0,0,264.671,108.691Zm-5.245-4.471.435-.331q.49.553,1.011,1.24l-.482.388Q259.9,104.8,259.426,104.22Zm3.105.933a10.425,10.425,0,0,0,1.074-1.264l.482.356q-.6.781-1.09,1.327Z" transform="translate(-221.608 -101.921)"/>
                <path id="路径_199" data-name="路径 199" d="M266.744,105H269.9V101.98h.663v1.176h3.317v.585H270.56V105h3.816v.6h-7.632Zm3.144.885h.664v.907l.324-.417q1.881.859,3.057,1.524l-.41.585q-1.075-.656-2.971-1.572v2.852h-.664Z" transform="translate(-219.822 -101.915)"/>
                <path id="路径_200" data-name="路径 200" d="M282.933,107.977c.2-.032.4-.065.6-.1v-4.8h-.514v-.553h3.413v.553h-.592v4.392l.719-.134a4.513,4.513,0,0,0,.054.553q-.375.076-.773.154v1.671h-.577v-1.552q-1.015.205-2.18.445Zm1.176-3.744h1.154V103.08h-1.154Zm0,1.691h1.154v-1.154h-1.154Zm1.154,1.655v-1.118h-1.154v1.32Q284.691,107.681,285.263,107.579Zm.853-1.931h1.825q.032-.578.027-1.431h-1.631v-.585h2.133q.355-.567.932-1.666l.616.292c-.328.508-.63.966-.913,1.374h1.323v.585H288.58c0,.572-.008,1.049-.027,1.431H290.7v.585h-2.066a4.8,4.8,0,0,0,2.177,2.8,4.892,4.892,0,0,0-.506.593,5.7,5.7,0,0,1-1.975-2.662,4.7,4.7,0,0,1-1.92,2.741q-.244-.308-.442-.513a4.037,4.037,0,0,0,1.927-2.963h-1.777Zm.522-3.357.457-.324a10.107,10.107,0,0,1,.893,1.177l-.514.355A14.322,14.322,0,0,0,286.638,102.29Z" transform="translate(-216.933 -101.918)"/>
                <path id="路径_201" data-name="路径 201" d="M297.392,102.046l-.19.23a8.094,8.094,0,0,0,3.5,2.583c-.163.232-.3.442-.418.632a9.77,9.77,0,0,1-1.216-.7v.45h-4.622v-.395q-.576.38-1.231.742-.159-.269-.4-.592a9.9,9.9,0,0,0,3.69-2.956Zm-3.381,4.2h5.506v3.507h-.632v-.529h-4.242v.546h-.632Zm4.874.576h-4.242v1.841h4.242Zm-2.1-4.092a9.819,9.819,0,0,1-2.109,1.952H298.9A9.914,9.914,0,0,1,296.784,102.734Z" transform="translate(-215.169 -101.903)"/>
                <path id="路径_202" data-name="路径 202" d="M304.608,107.343q.016.371.055.7-1.082.7-1.611,1.129l-.379-.522a.943.943,0,0,0,.269-.711v-2.812h-1v-.569h1.6v3.508Q304.056,107.729,304.608,107.343Zm-1.6-5.182q.608.6,1.161,1.216l-.553.457a15.312,15.312,0,0,0-1.082-1.263Zm1.572,3.806v-.544h4.3v.544a6.029,6.029,0,0,1-1.54,2.148,6.477,6.477,0,0,0,2.425.925q-.276.355-.482.64a7.675,7.675,0,0,1-2.457-1.181,10.461,10.461,0,0,1-2.716,1.244c-.138-.2-.275-.384-.411-.569a9.775,9.775,0,0,0,2.622-1.078,5.2,5.2,0,0,1-1.33-2.129Zm3.318-3.08h-1.975v.229a2.312,2.312,0,0,1-1.327,2.165,5.156,5.156,0,0,0-.458-.489,1.835,1.835,0,0,0,1.169-1.659v-.83h3.207v1.611a.318.318,0,0,0,.364.356h.868c-.026.216-.047.411-.062.585h-1.043c-.5,0-.742-.273-.742-.821Zm-2.307,3.08a4.678,4.678,0,0,0,1.253,1.774,4.508,4.508,0,0,0,1.339-1.774Z" transform="translate(-213.541 -101.883)"/>
                <path id="路径_203" data-name="路径 203" d="M314.488,107.534c.017.273.035.5.055.687q-1.264.79-2.085,1.374l-.379-.537a.89.89,0,0,0,.277-.718v-3.129h-1.122v-.569h1.753v3.839Q313.675,108.063,314.488,107.534Zm-2.448-5.459c.574.589.99,1.028,1.248,1.31l-.554.467a15.157,15.157,0,0,0-1.176-1.359Zm1.722,2.615h2.3v-2.717h.68v2.717h2.314v.568H316.74v4.456h-.68v-4.456h-2.3Z" transform="translate(-211.882 -101.916)"/>
              </g>
            </g>
            <path id="路径_204" data-name="路径 204" d="M250.478,101.947h-.657v7.916h.657v-7.916Z" transform="translate(-222.842 -101.921)"/>
          </g>
        </g>
        <rect id="矩形_10" data-name="矩形 10" width="1.1" height="23.107" transform="translate(316.64)"/>
        <g id="组_32" data-name="组 32" transform="translate(147.493 0.544)">
          <path id="路径_205" data-name="路径 205" d="M177.263,80.645q-.368-.9-.787-2.128T175.79,76.4q.06.856.1,2.411t.045,2.96v13.55h-2.549V73.23h3.653l5.612,13.855a40.3,40.3,0,0,1,1.737,4.974q.649-2.059,1.841-4.929l5.73-13.9h3.564V95.325h-2.74V81.775q0-1.877.207-5.371a49.054,49.054,0,0,1-1.693,4.684l-5.921,14.266h-2.166Z" transform="translate(-173.389 -73.23)"/>
          <path id="路径_206" data-name="路径 206" d="M205.7,94.507a15.428,15.428,0,0,1-.237-2.273,7.284,7.284,0,0,1-2.3,1.83,6.647,6.647,0,0,1-3.144.748,5.4,5.4,0,0,1-2.461-.549,4.106,4.106,0,0,1-1.723-1.633,5.15,5.15,0,0,1-.633-2.64,4.76,4.76,0,0,1,1.65-3.791q1.649-1.427,5.479-1.427a22.7,22.7,0,0,1,3.049.214v-.412a5.072,5.072,0,0,0-.986-3.555A3.673,3.673,0,0,0,201.616,80a9.241,9.241,0,0,0-2.452.35,12.666,12.666,0,0,0-2.26.839l-.471-2.151a11.869,11.869,0,0,1,2.392-.832,12.862,12.862,0,0,1,3.189-.389,7.305,7.305,0,0,1,3.248.656,4.518,4.518,0,0,1,2.076,2.227,10.046,10.046,0,0,1,.744,4.242v6.469q0,1.022.118,3.1ZM203.3,91.935a6.14,6.14,0,0,0,2.069-1.64v-3.54a24.179,24.179,0,0,0-2.726-.167,5.7,5.7,0,0,0-3.659.885,2.985,2.985,0,0,0-1.023,2.379,2.716,2.716,0,0,0,.728,2.092,2.785,2.785,0,0,0,1.966.671A5.713,5.713,0,0,0,203.3,91.935Z" transform="translate(-169.498 -72.412)"/>
          <path id="路径_207" data-name="路径 207" d="M211.4,94.209a5.656,5.656,0,0,1-1.127-3.951V80.9h-2.092L208.546,79l1.811-.276.206-3.8,2.386-.4v4.2h4.713l-.369,2.182H212.95v9.079a3.855,3.855,0,0,0,.588,2.38,2.2,2.2,0,0,0,1.842.747,7.029,7.029,0,0,0,2.267-.473l.471,1.968a8,8,0,0,1-1.561.564,7.579,7.579,0,0,1-1.914.23A4.26,4.26,0,0,1,211.4,94.209Z" transform="translate(-167.181 -72.999)"/>
          <path id="路径_208" data-name="路径 208" d="M230.6,86.419h-10.56a7.011,7.011,0,0,0,1.348,4.6,4.748,4.748,0,0,0,3.806,1.534,10.157,10.157,0,0,0,4.464-1.054l.633,2.014a11.438,11.438,0,0,1-2.527.962,12.825,12.825,0,0,1-3.1.336,7.714,7.714,0,0,1-4.029-.992,6.23,6.23,0,0,1-2.5-2.861,10.831,10.831,0,0,1-.847-4.493,11.2,11.2,0,0,1,.885-4.654,6.728,6.728,0,0,1,2.465-2.976,6.576,6.576,0,0,1,3.646-1.022,5.781,5.781,0,0,1,3.541,1.052,6.194,6.194,0,0,1,2.1,2.769,10.082,10.082,0,0,1,.678,3.731Zm-2.725-1.983a5.755,5.755,0,0,0-1.111-3.4,3.219,3.219,0,0,0-2.586-1.136,3.447,3.447,0,0,0-2.659,1.151,6.151,6.151,0,0,0-1.361,3.38Z" transform="translate(-165.556 -72.412)"/>
        </g>
        <g id="组_33" data-name="组 33" transform="translate(0 0.535)">
          <path id="路径_209" data-name="路径 209" d="M62.776,82.1H52.7V73.224H48.231v22H52.7V86.292h10.08v8.936H67.24v-22H62.776Z" transform="translate(-48.231 -73.221)"/>
          <path id="路径_210" data-name="路径 210" d="M84.109,85.818c0,3.578-1.776,5.488-5,5.488-3.244,0-5.031-1.964-5.031-5.64V73.238H69.613v12.58c0,6.189,3.439,9.739,9.435,9.739,6.054,0,9.525-3.615,9.525-9.92V73.224H84.109Z" transform="translate(-44.415 -73.222)"/>
          <path id="路径_211" data-name="路径 211" d="M129.216,88.355l-5-15.133h-3.643l-5,15.133-4.86-15.12H105.97l7.667,21.993h3.7l5-14.448,5,14.448h3.728l7.649-21.993h-4.629Z" transform="translate(-37.927 -73.222)"/>
          <path id="路径_212" data-name="路径 212" d="M141.217,85.756h8.12V81.749h-8.12v-4.5H153V73.237H136.813V95.211h16.615V91.2H141.217Z" transform="translate(-32.423 -73.219)"/>
          <rect id="矩形_11" data-name="矩形 11" width="4.404" height="21.974" transform="translate(126.329 0.002)"/>
          <path id="路径_213" data-name="路径 213" d="M104.252,90.634l1.975,4.581h4.68L101.25,73.224H97.315L87.622,95.215h4.557l2-4.581ZM99.207,78.792l3.386,7.876h-6.75Z" transform="translate(-41.201 -73.222)"/>
        </g>
        <g id="组_34" data-name="组 34" transform="translate(215.783 0.474)">
          <path id="路径_214" data-name="路径 214" d="M241.084,90.323h-9.746V88.262l9.775-15h2.672V87.991h3.123l-.363,2.332h-2.76v4.921h-2.7Zm0-2.332V76.871l-7.219,11.12Z" transform="translate(-231.338 -73.154)"/>
          <path id="路径_215" data-name="路径 215" d="M248.2,92.732q-1.722-2.828-1.722-8.171,0-5.448,1.779-8.419a5.832,5.832,0,0,1,5.353-2.972,5.685,5.685,0,0,1,5.192,2.806q1.72,2.807,1.72,8.178,0,5.448-1.771,8.427a5.84,5.84,0,0,1-5.374,2.98A5.665,5.665,0,0,1,248.2,92.732Zm8.526-1.745a16.906,16.906,0,0,0,1.052-6.742,17.172,17.172,0,0,0-.988-6.531A3.34,3.34,0,0,0,253.57,75.4q-4.313,0-4.314,9.148a16.781,16.781,0,0,0,.989,6.509,3.316,3.316,0,0,0,3.195,2.25A3.46,3.46,0,0,0,256.73,90.987Z" transform="translate(-228.636 -73.17)"/>
        </g>
      </g>
    </g>
  </g>
</svg>
